<?xml version="1.0" encoding="UTF-8" standalone="no"?>
<!-- This is a Stata 17.0 generated SVG file (http://www.stata.com) -->

<svg version="1.1" width="3.500in" height="3.000in" viewBox="0 0 2520 2160" xmlns="http://www.w3.org/2000/svg" xmlns:xlink="http://www.w3.org/1999/xlink">
	<desc>Stata Graph - Graph</desc>
	<rect x="0" y="0" width="2520" height="2160" style="fill:#FFFFFF;stroke:none"/>
	<rect x="0.00" y="0.00" width="2519.92" height="2160.00" style="fill:#FFFFFF"/>
	<rect x="2.16" y="2.16" width="2515.60" height="2155.68" style="fill:none;stroke:#FFFFFF;stroke-width:4.32"/>
	<rect x="47.49" y="47.49" width="2424.95" height="921.87" style="fill:#FFFFFF"/>
	<rect x="49.11" y="49.11" width="2421.71" height="918.63" style="fill:none;stroke:#FFFFFF;stroke-width:3.24"/>
	<rect x="1123.49" y="182.98" width="1311.65" height="709.70" style="fill:none;stroke:#000000;stroke-width:3.24"/>
	<rect x="1779.36" y="216.96" width="250.03" height="160.42" style="fill:#DD7E33"/>
	<rect x="1780.98" y="218.58" width="246.79" height="157.18" style="fill:none;stroke:#000000;stroke-width:3.24"/>
	<rect x="1779.36" y="377.38" width="455.81" height="160.50" style="fill:#DD7E33"/>
	<rect x="1780.98" y="379.00" width="452.57" height="157.26" style="fill:none;stroke:#000000;stroke-width:3.24"/>
	<rect x="1779.36" y="537.87" width="483.92" height="160.42" style="fill:#DD7E33"/>
	<rect x="1780.98" y="539.49" width="480.68" height="157.18" style="fill:none;stroke:#000000;stroke-width:3.24"/>
	<rect x="1620.52" y="698.29" width="158.84" height="160.42" style="fill:#338EC1"/>
	<rect x="1622.14" y="699.91" width="155.60" height="157.18" style="fill:none;stroke:#000000;stroke-width:3.24"/>
	<line x1="1794.48" y1="297.21" x2="2264.30" y2="297.21" style="stroke:#000000;stroke-width:4.86"/>
	<line x1="2067.42" y1="457.63" x2="2401.17" y2="457.63" style="stroke:#000000;stroke-width:4.86"/>
	<line x1="2110.74" y1="618.04" x2="2401.17" y2="618.04" style="stroke:#000000;stroke-width:4.86"/>
	<line x1="1517.51" y1="778.46" x2="1723.52" y2="778.46" style="stroke:#000000;stroke-width:4.86"/>
	<line x1="1794.48" y1="309.57" x2="1794.48" y2="284.84" stroke-linecap="round" style="fill:none;stroke:#000000;stroke-width:4.86"/>
	<line x1="2067.42" y1="469.99" x2="2067.42" y2="445.26" stroke-linecap="round" style="fill:none;stroke:#000000;stroke-width:4.86"/>
	<line x1="2110.66" y1="630.49" x2="2110.66" y2="605.76" stroke-linecap="round" style="fill:none;stroke:#000000;stroke-width:4.86"/>
	<line x1="1517.51" y1="790.90" x2="1517.51" y2="766.17" stroke-linecap="round" style="fill:none;stroke:#000000;stroke-width:4.86"/>
	<line x1="2264.22" y1="309.57" x2="2264.22" y2="284.84" stroke-linecap="round" style="fill:none;stroke:#000000;stroke-width:4.86"/>
	<line x1="1723.44" y1="790.90" x2="1723.44" y2="766.17" stroke-linecap="round" style="fill:none;stroke:#000000;stroke-width:4.86"/>
	<line x1="1121.87" y1="894.30" x2="1121.87" y2="181.37" style="stroke:#000000;stroke-width:3.24"/>
	<line x1="1121.87" y1="778.46" x2="1099.35" y2="778.46" style="stroke:#000000;stroke-width:3.24"/>
	<text x="1088.09" y="806.04" style="font-family:'Helvetica';font-size:78.75px;fill:#000000" text-anchor="end">     Pre-pandemic networks</text>
	<line x1="1121.87" y1="618.04" x2="1099.35" y2="618.04" style="stroke:#000000;stroke-width:3.24"/>
	<text x="1088.09" y="645.63" style="font-family:'Helvetica';font-size:78.75px;fill:#000000" text-anchor="end">Mental health</text>
	<line x1="1121.87" y1="457.63" x2="1099.35" y2="457.63" style="stroke:#000000;stroke-width:3.24"/>
	<text x="1088.09" y="485.21" style="font-family:'Helvetica';font-size:78.75px;fill:#000000" text-anchor="end">Physical health</text>
	<line x1="1121.87" y1="297.21" x2="1099.35" y2="297.21" style="stroke:#000000;stroke-width:3.24"/>
	<text x="1088.09" y="324.79" style="font-family:'Helvetica';font-size:78.75px;fill:#000000" text-anchor="end">Sociodemographics</text>
	<line x1="1121.87" y1="894.30" x2="2436.76" y2="894.30" style="stroke:#000000;stroke-width:3.24"/>
	<line x1="1157.55" y1="894.30" x2="1157.55" y2="916.83" style="stroke:#000000;stroke-width:3.24"/>
	<line x1="1364.82" y1="894.30" x2="1364.82" y2="916.83" style="stroke:#000000;stroke-width:3.24"/>
	<line x1="1572.09" y1="894.30" x2="1572.09" y2="916.83" style="stroke:#000000;stroke-width:3.24"/>
	<line x1="1779.36" y1="894.30" x2="1779.36" y2="916.83" style="stroke:#000000;stroke-width:3.24"/>
	<line x1="1986.63" y1="894.30" x2="1986.63" y2="916.83" style="stroke:#000000;stroke-width:3.24"/>
	<line x1="2193.90" y1="894.30" x2="2193.90" y2="916.83" style="stroke:#000000;stroke-width:3.24"/>
	<line x1="2401.17" y1="894.30" x2="2401.17" y2="916.83" style="stroke:#000000;stroke-width:3.24"/>
	<text x="1779.36" y="147.93" style="font-family:'Helvetica';font-size:78.75px;fill:#000000" text-anchor="middle">M1: Pre-pandemic networks</text>
	<rect x="47.49" y="969.35" width="2424.95" height="1143.16" style="fill:#FFFFFF"/>
	<rect x="49.11" y="970.97" width="2421.71" height="1139.92" style="fill:none;stroke:#FFFFFF;stroke-width:3.24"/>
	<rect x="1132.55" y="1104.77" width="1302.59" height="841.06" style="fill:none;stroke:#000000;stroke-width:3.24"/>
	<rect x="1783.85" y="1267.67" width="351.54" height="128.84" style="fill:#DD7E33"/>
	<rect x="1785.46" y="1269.29" width="348.30" height="125.60" style="fill:none;stroke:#000000;stroke-width:3.24"/>
	<rect x="1783.85" y="1396.50" width="432.10" height="128.84" style="fill:#DD7E33"/>
	<rect x="1785.46" y="1398.12" width="428.86" height="125.60" style="fill:none;stroke:#000000;stroke-width:3.24"/>
	<rect x="1783.85" y="1654.18" width="167.90" height="128.84" style="fill:#DD7E33"/>
	<rect x="1785.46" y="1655.80" width="164.66" height="125.60" style="fill:none;stroke:#000000;stroke-width:3.24"/>
	<rect x="1659.42" y="1525.34" width="124.42" height="128.84" style="fill:#338EC1"/>
	<rect x="1661.04" y="1526.96" width="121.19" height="125.60" style="fill:none;stroke:#000000;stroke-width:3.24"/>
	<rect x="1741.56" y="1783.02" width="42.29" height="128.84" style="fill:#338EC1"/>
	<rect x="1743.18" y="1784.64" width="39.05" height="125.60" style="fill:none;stroke:#000000;stroke-width:3.24"/>
	<rect x="1783.85" y="1138.83" width="166.24" height="128.84" style="fill:#FFFFFF"/>
	<rect x="1785.46" y="1140.45" width="163.00" height="125.60" style="fill:none;stroke:#000000;stroke-width:3.24"/>
	<line x1="1746.44" y1="1203.25" x2="2153.66" y2="1203.25" style="stroke:#000000;stroke-width:4.86"/>
	<line x1="1989.15" y1="1332.08" x2="2281.70" y2="1332.08" style="stroke:#000000;stroke-width:4.86"/>
	<line x1="2082.31" y1="1460.92" x2="2349.59" y2="1460.92" style="stroke:#000000;stroke-width:4.86"/>
	<line x1="1568.70" y1="1589.76" x2="1750.22" y2="1589.76" style="stroke:#000000;stroke-width:4.86"/>
	<line x1="1831.02" y1="1718.60" x2="2072.54" y2="1718.60" style="stroke:#000000;stroke-width:4.86"/>
	<line x1="1710.37" y1="1847.43" x2="1772.66" y2="1847.43" style="stroke:#000000;stroke-width:4.86"/>
	<line x1="1746.44" y1="1215.61" x2="1746.44" y2="1190.88" stroke-linecap="round" style="fill:none;stroke:#000000;stroke-width:4.86"/>
	<line x1="1989.15" y1="1344.45" x2="1989.15" y2="1319.72" stroke-linecap="round" style="fill:none;stroke:#000000;stroke-width:4.86"/>
	<line x1="2082.31" y1="1473.29" x2="2082.31" y2="1448.56" stroke-linecap="round" style="fill:none;stroke:#000000;stroke-width:4.86"/>
	<line x1="1568.62" y1="1602.12" x2="1568.62" y2="1577.40" stroke-linecap="round" style="fill:none;stroke:#000000;stroke-width:4.86"/>
	<line x1="1830.94" y1="1730.96" x2="1830.94" y2="1706.23" stroke-linecap="round" style="fill:none;stroke:#000000;stroke-width:4.86"/>
	<line x1="1710.29" y1="1859.80" x2="1710.29" y2="1835.07" stroke-linecap="round" style="fill:none;stroke:#000000;stroke-width:4.86"/>
	<line x1="2153.58" y1="1215.61" x2="2153.58" y2="1190.88" stroke-linecap="round" style="fill:none;stroke:#000000;stroke-width:4.86"/>
	<line x1="2281.62" y1="1344.45" x2="2281.62" y2="1319.72" stroke-linecap="round" style="fill:none;stroke:#000000;stroke-width:4.86"/>
	<line x1="2349.59" y1="1473.29" x2="2349.59" y2="1448.56" stroke-linecap="round" style="fill:none;stroke:#000000;stroke-width:4.86"/>
	<line x1="1750.22" y1="1602.12" x2="1750.22" y2="1577.40" stroke-linecap="round" style="fill:none;stroke:#000000;stroke-width:4.86"/>
	<line x1="2072.46" y1="1730.96" x2="2072.46" y2="1706.23" stroke-linecap="round" style="fill:none;stroke:#000000;stroke-width:4.86"/>
	<line x1="1772.66" y1="1859.80" x2="1772.66" y2="1835.07" stroke-linecap="round" style="fill:none;stroke:#000000;stroke-width:4.86"/>
	<line x1="1130.93" y1="1947.45" x2="1130.93" y2="1103.15" style="stroke:#000000;stroke-width:3.24"/>
	<line x1="1130.93" y1="1847.43" x2="1108.48" y2="1847.43" style="stroke:#000000;stroke-width:3.24"/>
	<text x="1097.22" y="1875.02" style="font-family:'Helvetica';font-size:78.75px;fill:#000000" text-anchor="end">Pandemic experiences</text>
	<line x1="1130.93" y1="1718.60" x2="1108.48" y2="1718.60" style="stroke:#000000;stroke-width:3.24"/>
	<text x="1097.22" y="1746.18" style="font-family:'Helvetica';font-size:78.75px;fill:#000000" text-anchor="end">Post-pandemic interactions</text>
	<line x1="1130.93" y1="1589.76" x2="1108.48" y2="1589.76" style="stroke:#000000;stroke-width:3.24"/>
	<text x="1097.22" y="1617.34" style="font-family:'Helvetica';font-size:78.75px;fill:#000000" text-anchor="end">     Pre-pandemic networks</text>
	<line x1="1130.93" y1="1460.92" x2="1108.48" y2="1460.92" style="stroke:#000000;stroke-width:3.24"/>
	<text x="1097.22" y="1488.50" style="font-family:'Helvetica';font-size:78.75px;fill:#000000" text-anchor="end">Mental health</text>
	<line x1="1130.93" y1="1332.08" x2="1108.48" y2="1332.08" style="stroke:#000000;stroke-width:3.24"/>
	<text x="1097.22" y="1359.67" style="font-family:'Helvetica';font-size:78.75px;fill:#000000" text-anchor="end">Physical health</text>
	<line x1="1130.93" y1="1203.25" x2="1108.48" y2="1203.25" style="stroke:#000000;stroke-width:3.24"/>
	<text x="1097.22" y="1230.83" style="font-family:'Helvetica';font-size:78.75px;fill:#000000" text-anchor="end">Sociodemographics</text>
	<line x1="1130.93" y1="1947.45" x2="2436.76" y2="1947.45" style="stroke:#000000;stroke-width:3.24"/>
	<line x1="1166.60" y1="1947.45" x2="1166.60" y2="1969.97" style="stroke:#000000;stroke-width:3.24"/>
	<text x="1166.60" y="2036.32" style="font-family:'Helvetica';font-size:78.75px;fill:#000000" text-anchor="middle">-60</text>
	<line x1="1372.38" y1="1947.45" x2="1372.38" y2="1969.97" style="stroke:#000000;stroke-width:3.24"/>
	<text x="1372.38" y="2036.32" style="font-family:'Helvetica';font-size:78.75px;fill:#000000" text-anchor="middle">-40</text>
	<line x1="1578.15" y1="1947.45" x2="1578.15" y2="1969.97" style="stroke:#000000;stroke-width:3.24"/>
	<text x="1578.15" y="2036.32" style="font-family:'Helvetica';font-size:78.75px;fill:#000000" text-anchor="middle">-20</text>
	<line x1="1783.85" y1="1947.45" x2="1783.85" y2="1969.97" style="stroke:#000000;stroke-width:3.24"/>
	<text x="1783.85" y="2036.32" style="font-family:'Helvetica';font-size:78.75px;fill:#000000" text-anchor="middle">0</text>
	<line x1="1989.62" y1="1947.45" x2="1989.62" y2="1969.97" style="stroke:#000000;stroke-width:3.24"/>
	<text x="1989.62" y="2036.32" style="font-family:'Helvetica';font-size:78.75px;fill:#000000" text-anchor="middle">20</text>
	<line x1="2195.39" y1="1947.45" x2="2195.39" y2="1969.97" style="stroke:#000000;stroke-width:3.24"/>
	<text x="2195.39" y="2036.32" style="font-family:'Helvetica';font-size:78.75px;fill:#000000" text-anchor="middle">40</text>
	<line x1="2401.17" y1="1947.45" x2="2401.17" y2="1969.97" style="stroke:#000000;stroke-width:3.24"/>
	<text x="2401.17" y="2036.32" style="font-family:'Helvetica';font-size:78.75px;fill:#000000" text-anchor="middle">60</text>
	<text x="1783.85" y="1069.80" style="font-family:'Helvetica';font-size:78.75px;fill:#000000" text-anchor="middle">M2: + Post-pandemic experiences</text>
</svg>
