<?xml version="1.0" encoding="UTF-8" standalone="no"?>
<!-- This is a Stata 16.1 generated SVG file (http://www.stata.com) -->

<svg version="1.1" width="5.50in" height="4.00in" viewBox="0 0 3960 2880" xmlns="http://www.w3.org/2000/svg" xmlns:xlink="http://www.w3.org/1999/xlink">
	<desc>Stata Graph - Graph</desc>
	<rect x="0" y="0" width="3960" height="2880" style="fill:#FFFFFF;stroke:none"/>
	<rect x="0.00" y="0.00" width="3959.88" height="2880.00" style="fill:#FFFFFF"/>
	<rect x="2.88" y="2.88" width="3954.12" height="2874.24" style="fill:none;stroke:#FFFFFF;stroke-width:5.76"/>
	<rect x="393.68" y="103.74" width="3462.46" height="2127.01" style="fill:none;stroke:#000000;stroke-width:5.76"/>
	<line x1="390.80" y1="689.68" x2="413.82" y2="689.68" style="stroke:#000000;stroke-width:5.76"/>
	<line x1="433.99" y1="689.68" x2="457.01" y2="689.68" style="stroke:#000000;stroke-width:5.76"/>
	<line x1="477.18" y1="689.68" x2="500.20" y2="689.68" style="stroke:#000000;stroke-width:5.76"/>
	<line x1="520.37" y1="689.68" x2="543.39" y2="689.68" style="stroke:#000000;stroke-width:5.76"/>
	<line x1="563.56" y1="689.68" x2="586.58" y2="689.68" style="stroke:#000000;stroke-width:5.76"/>
	<line x1="606.75" y1="689.68" x2="629.76" y2="689.68" style="stroke:#000000;stroke-width:5.76"/>
	<line x1="649.93" y1="689.68" x2="673.08" y2="689.68" style="stroke:#000000;stroke-width:5.76"/>
	<line x1="693.12" y1="689.68" x2="716.26" y2="689.68" style="stroke:#000000;stroke-width:5.76"/>
	<line x1="736.44" y1="689.68" x2="759.45" y2="689.68" style="stroke:#000000;stroke-width:5.76"/>
	<line x1="779.62" y1="689.68" x2="802.64" y2="689.68" style="stroke:#000000;stroke-width:5.76"/>
	<line x1="822.81" y1="689.68" x2="845.83" y2="689.68" style="stroke:#000000;stroke-width:5.76"/>
	<line x1="866.00" y1="689.68" x2="889.02" y2="689.68" style="stroke:#000000;stroke-width:5.76"/>
	<line x1="909.19" y1="689.68" x2="932.21" y2="689.68" style="stroke:#000000;stroke-width:5.76"/>
	<line x1="952.38" y1="689.68" x2="975.40" y2="689.68" style="stroke:#000000;stroke-width:5.76"/>
	<line x1="995.57" y1="689.68" x2="1018.59" y2="689.68" style="stroke:#000000;stroke-width:5.76"/>
	<line x1="1038.76" y1="689.68" x2="1061.78" y2="689.68" style="stroke:#000000;stroke-width:5.76"/>
	<line x1="1081.95" y1="689.68" x2="1104.96" y2="689.68" style="stroke:#000000;stroke-width:5.76"/>
	<line x1="1125.13" y1="689.68" x2="1148.15" y2="689.68" style="stroke:#000000;stroke-width:5.76"/>
	<line x1="1168.32" y1="689.68" x2="1191.34" y2="689.68" style="stroke:#000000;stroke-width:5.76"/>
	<line x1="1211.51" y1="689.68" x2="1234.53" y2="689.68" style="stroke:#000000;stroke-width:5.76"/>
	<line x1="1254.70" y1="689.68" x2="1277.72" y2="689.68" style="stroke:#000000;stroke-width:5.76"/>
	<line x1="1297.89" y1="689.68" x2="1320.91" y2="689.68" style="stroke:#000000;stroke-width:5.76"/>
	<line x1="1341.08" y1="689.68" x2="1364.10" y2="689.68" style="stroke:#000000;stroke-width:5.76"/>
	<line x1="1384.27" y1="689.68" x2="1407.29" y2="689.68" style="stroke:#000000;stroke-width:5.76"/>
	<line x1="1427.46" y1="689.68" x2="1450.47" y2="689.68" style="stroke:#000000;stroke-width:5.76"/>
	<line x1="1470.64" y1="689.68" x2="1493.66" y2="689.68" style="stroke:#000000;stroke-width:5.76"/>
	<line x1="1513.83" y1="689.68" x2="1536.85" y2="689.68" style="stroke:#000000;stroke-width:5.76"/>
	<line x1="1557.02" y1="689.68" x2="1580.04" y2="689.68" style="stroke:#000000;stroke-width:5.76"/>
	<line x1="1600.21" y1="689.68" x2="1623.35" y2="689.68" style="stroke:#000000;stroke-width:5.76"/>
	<line x1="1643.40" y1="689.68" x2="1666.54" y2="689.68" style="stroke:#000000;stroke-width:5.76"/>
	<line x1="1686.71" y1="689.68" x2="1709.73" y2="689.68" style="stroke:#000000;stroke-width:5.76"/>
	<line x1="1729.90" y1="689.68" x2="1752.92" y2="689.68" style="stroke:#000000;stroke-width:5.76"/>
	<line x1="1773.09" y1="689.68" x2="1796.11" y2="689.68" style="stroke:#000000;stroke-width:5.76"/>
	<line x1="1816.28" y1="689.68" x2="1839.30" y2="689.68" style="stroke:#000000;stroke-width:5.76"/>
	<line x1="1859.47" y1="689.68" x2="1882.48" y2="689.68" style="stroke:#000000;stroke-width:5.76"/>
	<line x1="1902.66" y1="689.68" x2="1925.67" y2="689.68" style="stroke:#000000;stroke-width:5.76"/>
	<line x1="1945.85" y1="689.68" x2="1968.86" y2="689.68" style="stroke:#000000;stroke-width:5.76"/>
	<line x1="1989.03" y1="689.68" x2="2012.05" y2="689.68" style="stroke:#000000;stroke-width:5.76"/>
	<line x1="2032.22" y1="689.68" x2="2055.24" y2="689.68" style="stroke:#000000;stroke-width:5.76"/>
	<line x1="2075.41" y1="689.68" x2="2098.43" y2="689.68" style="stroke:#000000;stroke-width:5.76"/>
	<line x1="2118.60" y1="689.68" x2="2141.62" y2="689.68" style="stroke:#000000;stroke-width:5.76"/>
	<line x1="2161.79" y1="689.68" x2="2184.81" y2="689.68" style="stroke:#000000;stroke-width:5.76"/>
	<line x1="2204.98" y1="689.68" x2="2227.99" y2="689.68" style="stroke:#000000;stroke-width:5.76"/>
	<line x1="2248.17" y1="689.68" x2="2271.18" y2="689.68" style="stroke:#000000;stroke-width:5.76"/>
	<line x1="2291.36" y1="689.68" x2="2314.37" y2="689.68" style="stroke:#000000;stroke-width:5.76"/>
	<line x1="2334.54" y1="689.68" x2="2357.56" y2="689.68" style="stroke:#000000;stroke-width:5.76"/>
	<line x1="2377.73" y1="689.68" x2="2400.75" y2="689.68" style="stroke:#000000;stroke-width:5.76"/>
	<line x1="2420.92" y1="689.68" x2="2443.94" y2="689.68" style="stroke:#000000;stroke-width:5.76"/>
	<line x1="2464.11" y1="689.68" x2="2487.13" y2="689.68" style="stroke:#000000;stroke-width:5.76"/>
	<line x1="2507.30" y1="689.68" x2="2530.44" y2="689.68" style="stroke:#000000;stroke-width:5.76"/>
	<line x1="2550.49" y1="689.68" x2="2573.63" y2="689.68" style="stroke:#000000;stroke-width:5.76"/>
	<line x1="2593.80" y1="689.68" x2="2616.82" y2="689.68" style="stroke:#000000;stroke-width:5.76"/>
	<line x1="2636.99" y1="689.68" x2="2660.01" y2="689.68" style="stroke:#000000;stroke-width:5.76"/>
	<line x1="2680.18" y1="689.68" x2="2703.20" y2="689.68" style="stroke:#000000;stroke-width:5.76"/>
	<line x1="2723.37" y1="689.68" x2="2746.38" y2="689.68" style="stroke:#000000;stroke-width:5.76"/>
	<line x1="2766.55" y1="689.68" x2="2789.57" y2="689.68" style="stroke:#000000;stroke-width:5.76"/>
	<line x1="2809.74" y1="689.68" x2="2832.76" y2="689.68" style="stroke:#000000;stroke-width:5.76"/>
	<line x1="2852.93" y1="689.68" x2="2875.95" y2="689.68" style="stroke:#000000;stroke-width:5.76"/>
	<line x1="2896.12" y1="689.68" x2="2919.14" y2="689.68" style="stroke:#000000;stroke-width:5.76"/>
	<line x1="2939.31" y1="689.68" x2="2962.33" y2="689.68" style="stroke:#000000;stroke-width:5.76"/>
	<line x1="2982.50" y1="689.68" x2="3005.52" y2="689.68" style="stroke:#000000;stroke-width:5.76"/>
	<line x1="3025.69" y1="689.68" x2="3048.70" y2="689.68" style="stroke:#000000;stroke-width:5.76"/>
	<line x1="3068.88" y1="689.68" x2="3091.89" y2="689.68" style="stroke:#000000;stroke-width:5.76"/>
	<line x1="3112.07" y1="689.68" x2="3135.08" y2="689.68" style="stroke:#000000;stroke-width:5.76"/>
	<line x1="3155.25" y1="689.68" x2="3178.27" y2="689.68" style="stroke:#000000;stroke-width:5.76"/>
	<line x1="3198.44" y1="689.68" x2="3221.46" y2="689.68" style="stroke:#000000;stroke-width:5.76"/>
	<line x1="3241.63" y1="689.68" x2="3264.65" y2="689.68" style="stroke:#000000;stroke-width:5.76"/>
	<line x1="3284.82" y1="689.68" x2="3307.84" y2="689.68" style="stroke:#000000;stroke-width:5.76"/>
	<line x1="3328.01" y1="689.68" x2="3351.03" y2="689.68" style="stroke:#000000;stroke-width:5.76"/>
	<line x1="3371.20" y1="689.68" x2="3394.22" y2="689.68" style="stroke:#000000;stroke-width:5.76"/>
	<line x1="3414.39" y1="689.68" x2="3437.40" y2="689.68" style="stroke:#000000;stroke-width:5.76"/>
	<line x1="3457.57" y1="689.68" x2="3480.72" y2="689.68" style="stroke:#000000;stroke-width:5.76"/>
	<line x1="3500.76" y1="689.68" x2="3523.91" y2="689.68" style="stroke:#000000;stroke-width:5.76"/>
	<line x1="3544.08" y1="689.68" x2="3567.09" y2="689.68" style="stroke:#000000;stroke-width:5.76"/>
	<line x1="3587.26" y1="689.68" x2="3610.28" y2="689.68" style="stroke:#000000;stroke-width:5.76"/>
	<line x1="3630.45" y1="689.68" x2="3653.47" y2="689.68" style="stroke:#000000;stroke-width:5.76"/>
	<line x1="3673.64" y1="689.68" x2="3696.66" y2="689.68" style="stroke:#000000;stroke-width:5.76"/>
	<line x1="3716.83" y1="689.68" x2="3739.85" y2="689.68" style="stroke:#000000;stroke-width:5.76"/>
	<line x1="3760.02" y1="689.68" x2="3783.04" y2="689.68" style="stroke:#000000;stroke-width:5.76"/>
	<line x1="3803.21" y1="689.68" x2="3826.23" y2="689.68" style="stroke:#000000;stroke-width:5.76"/>
	<line x1="3846.40" y1="689.68" x2="3859.02" y2="689.68" style="stroke:#000000;stroke-width:5.76"/>
	<path d=" M662.93 1035.20 L1080.59 885.46 L1498.37 929.27 L1916.02 1239.77 L2333.68 1640.85 L2751.46 721.73 L3169.11 374.73 L3586.77 642.78" stroke-linejoin="round" style="fill:none;stroke:#000000;stroke-width:8.64"/>
	<circle cx="1916.02" cy="1239.77" r="26.35" style="fill:#000000"/>
	<circle cx="1916.02" cy="1239.77" r="22.03" style="fill:none;stroke:#000000;stroke-width:8.64"/>
	<circle cx="2333.68" cy="1640.85" r="26.35" style="fill:#000000"/>
	<circle cx="2333.68" cy="1640.85" r="22.03" style="fill:none;stroke:#000000;stroke-width:8.64"/>
	<path d=" M662.93 878.28 L1080.59 411.11 L1498.37 913.55 L1916.02 883.11 L2333.68 1344.21 L2751.46 616.91 L3169.11 542.66 L3586.77 504.17" stroke-linejoin="round" style="fill:none;stroke:#0072B2;stroke-width:8.64"/>
	<polygon points="2333.68,1306.25 2300.80,1363.20 2366.56,1363.20" style="fill:#0072B2"/>
	<polygon points="2333.68,1314.89 2308.28,1358.88 2359.08,1358.88" style="fill:none;stroke:#0072B2;stroke-width:8.64"/>
	<path d=" M662.93 1222.69 L1080.59 1360.30 L1498.37 979.51 L1916.02 1672.78 L2333.68 2094.91 L2751.46 800.07 L3169.11 164.22 L3586.77 778.66" stroke-linejoin="round" style="fill:none;stroke:#D55E00;stroke-width:8.64"/>
	<rect x="1889.67" y="1646.43" width="52.69" height="52.70" style="fill:#D55E00"/>
	<rect x="1893.99" y="1650.75" width="44.05" height="44.06" style="fill:none;stroke:#D55E00;stroke-width:8.64"/>
	<rect x="2307.33" y="2068.56" width="52.69" height="52.70" style="fill:#D55E00"/>
	<rect x="2311.65" y="2072.88" width="44.05" height="44.06" style="fill:none;stroke:#D55E00;stroke-width:8.64"/>
	<line x1="390.80" y1="2233.63" x2="390.80" y2="100.86" style="stroke:#000000;stroke-width:5.76"/>
	<line x1="390.80" y1="2170.27" x2="350.83" y2="2170.27" style="stroke:#000000;stroke-width:5.76"/>
	<text x="300.72" y="2170.27" style="font-family:'Helvetica';font-size:99.99px;fill:#000000" transform="rotate(-90 300.72,2170.27)" text-anchor="middle">-6</text>
	<line x1="390.80" y1="1676.74" x2="350.83" y2="1676.74" style="stroke:#000000;stroke-width:5.76"/>
	<text x="300.72" y="1676.74" style="font-family:'Helvetica';font-size:99.99px;fill:#000000" transform="rotate(-90 300.72,1676.74)" text-anchor="middle">-4</text>
	<line x1="390.80" y1="1183.21" x2="350.83" y2="1183.21" style="stroke:#000000;stroke-width:5.76"/>
	<text x="300.72" y="1183.21" style="font-family:'Helvetica';font-size:99.99px;fill:#000000" transform="rotate(-90 300.72,1183.21)" text-anchor="middle">-2</text>
	<line x1="390.80" y1="689.68" x2="350.83" y2="689.68" style="stroke:#000000;stroke-width:5.76"/>
	<text x="300.72" y="689.68" style="font-family:'Helvetica';font-size:99.99px;fill:#000000" transform="rotate(-90 300.72,689.68)" text-anchor="middle">0</text>
	<line x1="390.80" y1="196.15" x2="350.83" y2="196.15" style="stroke:#000000;stroke-width:5.76"/>
	<text x="300.72" y="196.15" style="font-family:'Helvetica';font-size:99.99px;fill:#000000" transform="rotate(-90 300.72,196.15)" text-anchor="middle">2</text>
	<text x="190.71" y="1167.25" style="font-family:'Helvetica';font-size:99.99px;fill:#000000" transform="rotate(-90 190.71,1167.25)" text-anchor="middle">Effects on longevity</text>
	<line x1="390.80" y1="2233.63" x2="3859.02" y2="2233.63" style="stroke:#000000;stroke-width:5.76"/>
	<line x1="662.93" y1="2233.63" x2="662.93" y2="2273.73" style="stroke:#000000;stroke-width:5.76"/>
	<text x="662.93" y="2363.59" style="font-family:'Helvetica';font-size:99.99px;fill:#000000" text-anchor="middle">1st</text>
	<line x1="1080.71" y1="2233.63" x2="1080.71" y2="2273.73" style="stroke:#000000;stroke-width:5.76"/>
	<text x="1080.71" y="2363.59" style="font-family:'Helvetica';font-size:99.99px;fill:#000000" text-anchor="middle">2nd</text>
	<line x1="1498.37" y1="2233.63" x2="1498.37" y2="2273.73" style="stroke:#000000;stroke-width:5.76"/>
	<text x="1498.37" y="2363.59" style="font-family:'Helvetica';font-size:99.99px;fill:#000000" text-anchor="middle">3rd</text>
	<line x1="1916.02" y1="2233.63" x2="1916.02" y2="2273.73" style="stroke:#000000;stroke-width:5.76"/>
	<text x="1916.02" y="2363.59" style="font-family:'Helvetica';font-size:99.99px;fill:#000000" text-anchor="middle">At birth</text>
	<line x1="2333.80" y1="2233.63" x2="2333.80" y2="2273.73" style="stroke:#000000;stroke-width:5.76"/>
	<text x="2333.80" y="2363.59" style="font-family:'Helvetica';font-size:99.99px;fill:#000000" text-anchor="middle">1-3M</text>
	<line x1="2751.46" y1="2233.63" x2="2751.46" y2="2273.73" style="stroke:#000000;stroke-width:5.76"/>
	<text x="2751.46" y="2363.59" style="font-family:'Helvetica';font-size:99.99px;fill:#000000" text-anchor="middle">3-6M</text>
	<line x1="3169.11" y1="2233.63" x2="3169.11" y2="2273.73" style="stroke:#000000;stroke-width:5.76"/>
	<text x="3169.11" y="2363.59" style="font-family:'Helvetica';font-size:99.99px;fill:#000000" text-anchor="middle">7-9M</text>
	<line x1="3586.89" y1="2233.63" x2="3586.89" y2="2273.73" style="stroke:#000000;stroke-width:5.76"/>
	<text x="3586.89" y="2363.59" style="font-family:'Helvetica';font-size:99.99px;fill:#000000" text-anchor="middle">10-12M</text>
	<text x="2124.91" y="2473.60" style="font-family:'Helvetica';font-size:99.99px;fill:#000000" text-anchor="middle">Trimester</text>
	<rect x="744.23" y="2558.24" width="2761.48" height="186.37" style="fill:#FFFFFF"/>
	<rect x="747.11" y="2561.12" width="2755.72" height="180.61" style="fill:none;stroke:#000000;stroke-width:5.76"/>
	<line x1="787.42" y1="2651.43" x2="1161.77" y2="2651.43" style="stroke:#000000;stroke-width:8.64"/>
	<line x1="1893.00" y1="2651.43" x2="2267.47" y2="2651.43" style="stroke:#0072B2;stroke-width:8.64"/>
	<line x1="2687.85" y1="2651.43" x2="3062.32" y2="2651.43" style="stroke:#D55E00;stroke-width:8.64"/>
	<text x="1221.78" y="2686.46" style="font-family:'Helvetica';font-size:99.99px;fill:#000000">Full sample</text>
	<text x="2327.37" y="2686.46" style="font-family:'Helvetica';font-size:99.99px;fill:#000000">Male</text>
	<text x="3122.34" y="2686.46" style="font-family:'Helvetica';font-size:99.99px;fill:#000000">Female</text>
</svg>
