<?xml version="1.0" encoding="UTF-8" standalone="no"?>
<!-- This is a Stata 16.1 generated SVG file (http://www.stata.com) -->

<svg version="1.1" width="5.50in" height="4.00in" viewBox="0 0 3960 2880" xmlns="http://www.w3.org/2000/svg" xmlns:xlink="http://www.w3.org/1999/xlink">
	<desc>Stata Graph - Graph</desc>
	<rect x="0" y="0" width="3960" height="2880" style="fill:#FFFFFF;stroke:none"/>
	<rect x="0.00" y="0.00" width="3959.88" height="2880.00" style="fill:#FFFFFF"/>
	<rect x="2.88" y="2.88" width="3954.12" height="2874.24" style="fill:none;stroke:#FFFFFF;stroke-width:5.76"/>
	<rect x="207.90" y="63.36" width="1844.37" height="1304.37" style="fill:#FFFFFF"/>
	<rect x="210.06" y="65.52" width="1840.05" height="1300.05" style="fill:none;stroke:#FFFFFF;stroke-width:4.32"/>
	<rect x="413.13" y="257.09" width="1561.37" height="830.40" style="fill:none;stroke:#000000;stroke-width:4.32"/>
	<line x1="1825.19" y1="1089.65" x2="1825.19" y2="254.93" style="stroke:#FF0000;stroke-width:6.48"/>
	<path d=" M1020.07 1037.68 L1027.00 1034.46 L1033.81 1030.00 L1040.74 1024.93 L1047.67 1016.64 L1054.47 1006.00 L1061.40 993.37 L1068.33 981.24 L1075.14 966.52 L1082.07 946.84 L1088.88 923.82 L1095.81 892.14 L1102.74 855.51 L1109.54 809.35 L1116.47 750.69 L1123.40 691.54 L1130.21 638.32 L1137.14 598.10 L1143.94 562.34 L1150.88 510.61 L1157.81 471.50 L1164.61 444.03 L1171.54 420.39 L1178.47 399.11 L1185.28 389.21 L1192.21 406.28 L1199.01 431.41 L1205.94 448.48 L1212.87 462.59 L1219.68 478.18 L1226.61 514.32 L1233.54 551.45 L1240.35 596.37 L1247.28 646.49 L1254.08 705.64 L1261.01 772.97 L1267.94 823.83 L1274.75 859.72 L1281.68 900.56 L1288.61 932.49 L1295.41 953.15 L1302.35 967.01 L1309.15 979.76 L1316.08 995.10 L1323.01 1003.03 L1329.82 1008.97 L1336.75 1018.25 L1343.68 1026.79 L1350.48 1030.99 L1357.41 1035.57" stroke-linejoin="round" style="fill:none;stroke:#606060;stroke-width:6.48"/>
	<line x1="410.97" y1="1089.65" x2="410.97" y2="254.93" style="stroke:#000000;stroke-width:4.32"/>
	<line x1="410.97" y1="1042.13" x2="381.03" y2="1042.13" style="stroke:#000000;stroke-width:4.32"/>
	<text x="347.86" y="1042.13" style="font-family:'Helvetica';font-size:60.02px;fill:#000000" transform="rotate(-90 347.86,1042.13)" text-anchor="middle">0</text>
	<line x1="410.97" y1="795.49" x2="381.03" y2="795.49" style="stroke:#000000;stroke-width:4.32"/>
	<text x="347.86" y="795.49" style="font-family:'Helvetica';font-size:60.02px;fill:#000000" transform="rotate(-90 347.86,795.49)" text-anchor="middle">5</text>
	<line x1="410.97" y1="548.97" x2="381.03" y2="548.97" style="stroke:#000000;stroke-width:4.32"/>
	<text x="347.86" y="548.97" style="font-family:'Helvetica';font-size:60.02px;fill:#000000" transform="rotate(-90 347.86,548.97)" text-anchor="middle">10</text>
	<line x1="410.97" y1="302.45" x2="381.03" y2="302.45" style="stroke:#000000;stroke-width:4.32"/>
	<text x="347.86" y="302.45" style="font-family:'Helvetica';font-size:60.02px;fill:#000000" transform="rotate(-90 347.86,302.45)" text-anchor="middle">15</text>
	<line x1="410.97" y1="1089.65" x2="1976.66" y2="1089.65" style="stroke:#000000;stroke-width:4.32"/>
	<line x1="458.49" y1="1089.65" x2="458.49" y2="1119.60" style="stroke:#000000;stroke-width:4.32"/>
	<text x="458.49" y="1176.65" style="font-family:'Helvetica';font-size:60.02px;fill:#000000" text-anchor="middle">-.4</text>
	<line x1="642.39" y1="1089.65" x2="642.39" y2="1119.60" style="stroke:#000000;stroke-width:4.32"/>
	<text x="642.39" y="1176.65" style="font-family:'Helvetica';font-size:60.02px;fill:#000000" text-anchor="middle">-.3</text>
	<line x1="826.15" y1="1089.65" x2="826.15" y2="1119.60" style="stroke:#000000;stroke-width:4.32"/>
	<text x="826.15" y="1176.65" style="font-family:'Helvetica';font-size:60.02px;fill:#000000" text-anchor="middle">-.2</text>
	<line x1="1009.92" y1="1089.65" x2="1009.92" y2="1119.60" style="stroke:#000000;stroke-width:4.32"/>
	<text x="1009.92" y="1176.65" style="font-family:'Helvetica';font-size:60.02px;fill:#000000" text-anchor="middle">-.1</text>
	<line x1="1193.82" y1="1089.65" x2="1193.82" y2="1119.60" style="stroke:#000000;stroke-width:4.32"/>
	<text x="1193.82" y="1176.65" style="font-family:'Helvetica';font-size:60.02px;fill:#000000" text-anchor="middle">0</text>
	<line x1="1377.59" y1="1089.65" x2="1377.59" y2="1119.60" style="stroke:#000000;stroke-width:4.32"/>
	<text x="1377.59" y="1176.65" style="font-family:'Helvetica';font-size:60.02px;fill:#000000" text-anchor="middle">.1</text>
	<line x1="1561.48" y1="1089.65" x2="1561.48" y2="1119.60" style="stroke:#000000;stroke-width:4.32"/>
	<text x="1561.48" y="1176.65" style="font-family:'Helvetica';font-size:60.02px;fill:#000000" text-anchor="middle">.2</text>
	<line x1="1745.25" y1="1089.65" x2="1745.25" y2="1119.60" style="stroke:#000000;stroke-width:4.32"/>
	<text x="1745.25" y="1176.65" style="font-family:'Helvetica';font-size:60.02px;fill:#000000" text-anchor="middle">.3</text>
	<line x1="1929.14" y1="1089.65" x2="1929.14" y2="1119.60" style="stroke:#000000;stroke-width:4.32"/>
	<text x="1929.14" y="1176.65" style="font-family:'Helvetica';font-size:60.02px;fill:#000000" text-anchor="middle">.4</text>
	<text x="1193.82" y="1254.58" style="font-family:'Helvetica';font-size:74.99px;fill:#FF0000" text-anchor="middle">p&lt;.001</text>
	<text x="1193.82" y="214.89" style="font-family:'Helvetica';font-size:89.97px;fill:#000000" text-anchor="middle">First stage</text>
	<rect x="2052.27" y="63.36" width="1844.25" height="1304.37" style="fill:#FFFFFF"/>
	<rect x="2054.43" y="65.52" width="1839.93" height="1300.05" style="fill:none;stroke:#FFFFFF;stroke-width:4.32"/>
	<rect x="2257.50" y="257.09" width="1561.24" height="830.40" style="fill:none;stroke:#000000;stroke-width:4.32"/>
	<line x1="2479.08" y1="1089.65" x2="2479.08" y2="254.93" style="stroke:#FF0000;stroke-width:6.48"/>
	<path d=" M2639.34 1039.41 L2654.31 1038.17 L2669.16 1037.55 L2684.01 1037.80 L2698.99 1038.67 L2713.84 1039.78 L2728.81 1034.46 L2743.66 1022.83 L2758.64 1008.22 L2773.49 992.01 L2788.34 965.90 L2803.31 939.54 L2818.16 912.56 L2833.13 878.28 L2847.98 832.49 L2862.96 788.56 L2877.81 743.27 L2892.66 700.57 L2907.63 669.01 L2922.48 645.75 L2937.45 619.14 L2952.30 577.31 L2967.28 531.65 L2982.13 479.55 L2997.10 430.54 L3011.95 407.40 L3026.80 405.67 L3041.78 435.24 L3056.63 472.24 L3071.60 510.61 L3086.45 547.24 L3101.42 578.80 L3116.27 612.21 L3131.12 648.47 L3146.10 692.53 L3160.95 743.64 L3175.92 795.98 L3190.77 849.32 L3205.74 895.36 L3220.59 932.61 L3235.44 965.03 L3250.42 990.03 L3265.27 1006.24 L3280.24 1016.39 L3295.09 1024.19 L3310.07 1029.88 L3324.91 1032.60 L3339.76 1034.83 L3354.74 1036.31 L3369.59 1038.42" stroke-linejoin="round" style="fill:none;stroke:#606060;stroke-width:6.48"/>
	<line x1="2255.34" y1="1089.65" x2="2255.34" y2="254.93" style="stroke:#000000;stroke-width:4.32"/>
	<line x1="2255.34" y1="1042.13" x2="2225.27" y2="1042.13" style="stroke:#000000;stroke-width:4.32"/>
	<text x="2192.23" y="1042.13" style="font-family:'Helvetica';font-size:60.02px;fill:#000000" transform="rotate(-90 2192.23,1042.13)" text-anchor="middle">0</text>
	<line x1="2255.34" y1="857.24" x2="2225.27" y2="857.24" style="stroke:#000000;stroke-width:4.32"/>
	<text x="2192.23" y="857.24" style="font-family:'Helvetica';font-size:60.02px;fill:#000000" transform="rotate(-90 2192.23,857.24)" text-anchor="middle">10</text>
	<line x1="2255.34" y1="672.23" x2="2225.27" y2="672.23" style="stroke:#000000;stroke-width:4.32"/>
	<text x="2192.23" y="672.23" style="font-family:'Helvetica';font-size:60.02px;fill:#000000" transform="rotate(-90 2192.23,672.23)" text-anchor="middle">20</text>
	<line x1="2255.34" y1="487.34" x2="2225.27" y2="487.34" style="stroke:#000000;stroke-width:4.32"/>
	<text x="2192.23" y="487.34" style="font-family:'Helvetica';font-size:60.02px;fill:#000000" transform="rotate(-90 2192.23,487.34)" text-anchor="middle">30</text>
	<line x1="2255.34" y1="302.45" x2="2225.27" y2="302.45" style="stroke:#000000;stroke-width:4.32"/>
	<text x="2192.23" y="302.45" style="font-family:'Helvetica';font-size:60.02px;fill:#000000" transform="rotate(-90 2192.23,302.45)" text-anchor="middle">40</text>
	<line x1="2255.34" y1="1089.65" x2="3820.91" y2="1089.65" style="stroke:#000000;stroke-width:4.32"/>
	<line x1="2302.86" y1="1089.65" x2="2302.86" y2="1119.60" style="stroke:#000000;stroke-width:4.32"/>
	<text x="2302.86" y="1176.65" style="font-family:'Helvetica';font-size:60.02px;fill:#000000" text-anchor="middle">-.08</text>
	<line x1="2486.63" y1="1089.65" x2="2486.63" y2="1119.60" style="stroke:#000000;stroke-width:4.32"/>
	<text x="2486.63" y="1176.65" style="font-family:'Helvetica';font-size:60.02px;fill:#000000" text-anchor="middle">-.06</text>
	<line x1="2670.40" y1="1089.65" x2="2670.40" y2="1119.60" style="stroke:#000000;stroke-width:4.32"/>
	<text x="2670.40" y="1176.65" style="font-family:'Helvetica';font-size:60.02px;fill:#000000" text-anchor="middle">-.04</text>
	<line x1="2854.29" y1="1089.65" x2="2854.29" y2="1119.60" style="stroke:#000000;stroke-width:4.32"/>
	<text x="2854.29" y="1176.65" style="font-family:'Helvetica';font-size:60.02px;fill:#000000" text-anchor="middle">-.02</text>
	<line x1="3038.06" y1="1089.65" x2="3038.06" y2="1119.60" style="stroke:#000000;stroke-width:4.32"/>
	<text x="3038.06" y="1176.65" style="font-family:'Helvetica';font-size:60.02px;fill:#000000" text-anchor="middle">0</text>
	<line x1="3221.95" y1="1089.65" x2="3221.95" y2="1119.60" style="stroke:#000000;stroke-width:4.32"/>
	<text x="3221.95" y="1176.65" style="font-family:'Helvetica';font-size:60.02px;fill:#000000" text-anchor="middle">.02</text>
	<line x1="3405.72" y1="1089.65" x2="3405.72" y2="1119.60" style="stroke:#000000;stroke-width:4.32"/>
	<text x="3405.72" y="1176.65" style="font-family:'Helvetica';font-size:60.02px;fill:#000000" text-anchor="middle">.04</text>
	<line x1="3589.62" y1="1089.65" x2="3589.62" y2="1119.60" style="stroke:#000000;stroke-width:4.32"/>
	<text x="3589.62" y="1176.65" style="font-family:'Helvetica';font-size:60.02px;fill:#000000" text-anchor="middle">.06</text>
	<line x1="3773.39" y1="1089.65" x2="3773.39" y2="1119.60" style="stroke:#000000;stroke-width:4.32"/>
	<text x="3773.39" y="1176.65" style="font-family:'Helvetica';font-size:60.02px;fill:#000000" text-anchor="middle">.08</text>
	<text x="3038.06" y="1254.58" style="font-family:'Helvetica';font-size:74.99px;fill:#FF0000" text-anchor="middle">p&lt;.001</text>
	<text x="3038.06" y="214.89" style="font-family:'Helvetica';font-size:89.97px;fill:#000000" text-anchor="middle">Network size: total</text>
	<rect x="207.90" y="1367.73" width="1844.37" height="1304.37" style="fill:#FFFFFF"/>
	<rect x="210.06" y="1369.89" width="1840.05" height="1300.05" style="fill:none;stroke:#FFFFFF;stroke-width:4.32"/>
	<rect x="413.13" y="1561.46" width="1561.37" height="830.40" style="fill:none;stroke:#000000;stroke-width:4.32"/>
	<line x1="616.65" y1="2394.02" x2="616.65" y2="1559.30" style="stroke:#FF0000;stroke-width:6.48"/>
	<path d=" M856.10 2343.40 L870.83 2339.07 L885.55 2334.74 L900.28 2328.92 L915.01 2323.73 L929.73 2318.65 L944.46 2310.61 L959.06 2296.25 L973.79 2275.59 L988.51 2247.99 L1003.24 2218.91 L1017.97 2189.82 L1032.69 2142.30 L1047.42 2086.49 L1062.15 2036.99 L1076.75 1993.67 L1091.47 1946.90 L1106.20 1887.00 L1120.93 1841.58 L1135.65 1779.09 L1150.38 1728.97 L1165.11 1705.95 L1179.83 1701.00 L1194.43 1701.99 L1209.16 1701.62 L1223.89 1710.03 L1238.61 1741.09 L1253.34 1795.05 L1268.07 1864.48 L1282.79 1943.43 L1297.52 2003.70 L1312.12 2053.45 L1326.85 2083.52 L1341.57 2120.15 L1356.30 2157.52 L1371.03 2189.82 L1385.75 2228.81 L1400.48 2258.26 L1415.20 2280.66 L1429.81 2296.38 L1444.53 2306.03 L1459.26 2313.08 L1473.99 2317.41 L1488.71 2320.01 L1503.44 2324.22 L1518.16 2328.31 L1532.89 2333.87 L1547.49 2338.45 L1562.22 2341.42 L1576.95 2344.52" stroke-linejoin="round" style="fill:none;stroke:#606060;stroke-width:6.48"/>
	<line x1="410.97" y1="2394.02" x2="410.97" y2="1559.30" style="stroke:#000000;stroke-width:4.32"/>
	<line x1="410.97" y1="2346.50" x2="381.03" y2="2346.50" style="stroke:#000000;stroke-width:4.32"/>
	<text x="347.86" y="2346.50" style="font-family:'Helvetica';font-size:60.02px;fill:#000000" transform="rotate(-90 347.86,2346.50)" text-anchor="middle">0</text>
	<line x1="410.97" y1="2161.61" x2="381.03" y2="2161.61" style="stroke:#000000;stroke-width:4.32"/>
	<text x="347.86" y="2161.61" style="font-family:'Helvetica';font-size:60.02px;fill:#000000" transform="rotate(-90 347.86,2161.61)" text-anchor="middle">20</text>
	<line x1="410.97" y1="1976.60" x2="381.03" y2="1976.60" style="stroke:#000000;stroke-width:4.32"/>
	<text x="347.86" y="1976.60" style="font-family:'Helvetica';font-size:60.02px;fill:#000000" transform="rotate(-90 347.86,1976.60)" text-anchor="middle">40</text>
	<line x1="410.97" y1="1791.71" x2="381.03" y2="1791.71" style="stroke:#000000;stroke-width:4.32"/>
	<text x="347.86" y="1791.71" style="font-family:'Helvetica';font-size:60.02px;fill:#000000" transform="rotate(-90 347.86,1791.71)" text-anchor="middle">60</text>
	<line x1="410.97" y1="1606.82" x2="381.03" y2="1606.82" style="stroke:#000000;stroke-width:4.32"/>
	<text x="347.86" y="1606.82" style="font-family:'Helvetica';font-size:60.02px;fill:#000000" transform="rotate(-90 347.86,1606.82)" text-anchor="middle">80</text>
	<line x1="410.97" y1="2394.02" x2="1976.66" y2="2394.02" style="stroke:#000000;stroke-width:4.32"/>
	<line x1="458.49" y1="2394.02" x2="458.49" y2="2423.97" style="stroke:#000000;stroke-width:4.32"/>
	<text x="458.49" y="2480.89" style="font-family:'Helvetica';font-size:60.02px;fill:#000000" text-anchor="middle">-.04</text>
	<line x1="642.39" y1="2394.02" x2="642.39" y2="2423.97" style="stroke:#000000;stroke-width:4.32"/>
	<text x="642.39" y="2480.89" style="font-family:'Helvetica';font-size:60.02px;fill:#000000" text-anchor="middle">-.03</text>
	<line x1="826.15" y1="2394.02" x2="826.15" y2="2423.97" style="stroke:#000000;stroke-width:4.32"/>
	<text x="826.15" y="2480.89" style="font-family:'Helvetica';font-size:60.02px;fill:#000000" text-anchor="middle">-.02</text>
	<line x1="1009.92" y1="2394.02" x2="1009.92" y2="2423.97" style="stroke:#000000;stroke-width:4.32"/>
	<text x="1009.92" y="2480.89" style="font-family:'Helvetica';font-size:60.02px;fill:#000000" text-anchor="middle">-.01</text>
	<line x1="1193.82" y1="2394.02" x2="1193.82" y2="2423.97" style="stroke:#000000;stroke-width:4.32"/>
	<text x="1193.82" y="2480.89" style="font-family:'Helvetica';font-size:60.02px;fill:#000000" text-anchor="middle">0</text>
	<line x1="1377.59" y1="2394.02" x2="1377.59" y2="2423.97" style="stroke:#000000;stroke-width:4.32"/>
	<text x="1377.59" y="2480.89" style="font-family:'Helvetica';font-size:60.02px;fill:#000000" text-anchor="middle">.01</text>
	<line x1="1561.48" y1="2394.02" x2="1561.48" y2="2423.97" style="stroke:#000000;stroke-width:4.32"/>
	<text x="1561.48" y="2480.89" style="font-family:'Helvetica';font-size:60.02px;fill:#000000" text-anchor="middle">.02</text>
	<line x1="1745.25" y1="2394.02" x2="1745.25" y2="2423.97" style="stroke:#000000;stroke-width:4.32"/>
	<text x="1745.25" y="2480.89" style="font-family:'Helvetica';font-size:60.02px;fill:#000000" text-anchor="middle">.03</text>
	<line x1="1929.14" y1="2394.02" x2="1929.14" y2="2423.97" style="stroke:#000000;stroke-width:4.32"/>
	<text x="1929.14" y="2480.89" style="font-family:'Helvetica';font-size:60.02px;fill:#000000" text-anchor="middle">.04</text>
	<text x="1193.82" y="2558.95" style="font-family:'Helvetica';font-size:74.99px;fill:#FF0000" text-anchor="middle">p&lt;.001</text>
	<text x="1193.82" y="1519.25" style="font-family:'Helvetica';font-size:89.97px;fill:#000000" text-anchor="middle">Network size: neighbor</text>
	<rect x="2052.27" y="1367.73" width="1844.25" height="1304.37" style="fill:#FFFFFF"/>
	<rect x="2054.43" y="1369.89" width="1839.93" height="1300.05" style="fill:none;stroke:#FFFFFF;stroke-width:4.32"/>
	<rect x="2257.50" y="1561.46" width="1561.24" height="830.40" style="fill:none;stroke:#000000;stroke-width:4.32"/>
	<line x1="2380.58" y1="2394.02" x2="2380.58" y2="1559.30" style="stroke:#FF0000;stroke-width:6.48"/>
	<path d=" M2585.26 2344.52 L2604.07 2343.40 L2622.88 2340.19 L2641.57 2335.36 L2660.38 2329.05 L2679.19 2321.50 L2698.00 2311.60 L2716.81 2300.96 L2735.62 2288.46 L2754.30 2264.82 L2773.11 2235.12 L2791.92 2204.80 L2810.73 2167.30 L2829.54 2123.12 L2848.35 2084.14 L2867.04 2054.81 L2885.85 2001.47 L2904.66 1935.63 L2923.47 1890.96 L2942.28 1842.70 L2960.97 1793.56 L2979.78 1756.56 L2998.59 1744.81 L3017.40 1736.02 L3036.21 1701.86 L3055.02 1687.26 L3073.70 1671.91 L3092.51 1673.77 L3111.32 1707.31 L3130.13 1757.06 L3148.94 1834.77 L3167.75 1915.71 L3186.44 2004.57 L3205.25 2066.07 L3224.06 2113.47 L3242.87 2158.14 L3261.68 2192.30 L3280.49 2219.03 L3299.18 2242.05 L3317.99 2271.01 L3336.80 2296.01 L3355.61 2312.71 L3374.41 2321.25 L3393.10 2327.56 L3411.91 2333.87 L3430.72 2336.10 L3449.53 2337.71 L3468.34 2340.56 L3487.15 2343.28 L3505.84 2344.52" stroke-linejoin="round" style="fill:none;stroke:#606060;stroke-width:6.48"/>
	<line x1="2255.34" y1="2394.02" x2="2255.34" y2="1559.30" style="stroke:#000000;stroke-width:4.32"/>
	<line x1="2255.34" y1="2346.50" x2="2225.27" y2="2346.50" style="stroke:#000000;stroke-width:4.32"/>
	<text x="2192.23" y="2346.50" style="font-family:'Helvetica';font-size:60.02px;fill:#000000" transform="rotate(-90 2192.23,2346.50)" text-anchor="middle">0</text>
	<line x1="2255.34" y1="2099.86" x2="2225.27" y2="2099.86" style="stroke:#000000;stroke-width:4.32"/>
	<text x="2192.23" y="2099.86" style="font-family:'Helvetica';font-size:60.02px;fill:#000000" transform="rotate(-90 2192.23,2099.86)" text-anchor="middle">10</text>
	<line x1="2255.34" y1="1853.34" x2="2225.27" y2="1853.34" style="stroke:#000000;stroke-width:4.32"/>
	<text x="2192.23" y="1853.34" style="font-family:'Helvetica';font-size:60.02px;fill:#000000" transform="rotate(-90 2192.23,1853.34)" text-anchor="middle">20</text>
	<line x1="2255.34" y1="1606.82" x2="2225.27" y2="1606.82" style="stroke:#000000;stroke-width:4.32"/>
	<text x="2192.23" y="1606.82" style="font-family:'Helvetica';font-size:60.02px;fill:#000000" transform="rotate(-90 2192.23,1606.82)" text-anchor="middle">30</text>
	<line x1="2255.34" y1="2394.02" x2="3820.91" y2="2394.02" style="stroke:#000000;stroke-width:4.32"/>
	<line x1="2302.86" y1="2394.02" x2="2302.86" y2="2423.97" style="stroke:#000000;stroke-width:4.32"/>
	<text x="2302.86" y="2480.89" style="font-family:'Helvetica';font-size:60.02px;fill:#000000" text-anchor="middle">-.08</text>
	<line x1="2486.63" y1="2394.02" x2="2486.63" y2="2423.97" style="stroke:#000000;stroke-width:4.32"/>
	<text x="2486.63" y="2480.89" style="font-family:'Helvetica';font-size:60.02px;fill:#000000" text-anchor="middle">-.06</text>
	<line x1="2670.40" y1="2394.02" x2="2670.40" y2="2423.97" style="stroke:#000000;stroke-width:4.32"/>
	<text x="2670.40" y="2480.89" style="font-family:'Helvetica';font-size:60.02px;fill:#000000" text-anchor="middle">-.04</text>
	<line x1="2854.29" y1="2394.02" x2="2854.29" y2="2423.97" style="stroke:#000000;stroke-width:4.32"/>
	<text x="2854.29" y="2480.89" style="font-family:'Helvetica';font-size:60.02px;fill:#000000" text-anchor="middle">-.02</text>
	<line x1="3038.06" y1="2394.02" x2="3038.06" y2="2423.97" style="stroke:#000000;stroke-width:4.32"/>
	<text x="3038.06" y="2480.89" style="font-family:'Helvetica';font-size:60.02px;fill:#000000" text-anchor="middle">0</text>
	<line x1="3221.95" y1="2394.02" x2="3221.95" y2="2423.97" style="stroke:#000000;stroke-width:4.32"/>
	<text x="3221.95" y="2480.89" style="font-family:'Helvetica';font-size:60.02px;fill:#000000" text-anchor="middle">.02</text>
	<line x1="3405.72" y1="2394.02" x2="3405.72" y2="2423.97" style="stroke:#000000;stroke-width:4.32"/>
	<text x="3405.72" y="2480.89" style="font-family:'Helvetica';font-size:60.02px;fill:#000000" text-anchor="middle">.04</text>
	<line x1="3589.62" y1="2394.02" x2="3589.62" y2="2423.97" style="stroke:#000000;stroke-width:4.32"/>
	<text x="3589.62" y="2480.89" style="font-family:'Helvetica';font-size:60.02px;fill:#000000" text-anchor="middle">.06</text>
	<line x1="3773.39" y1="2394.02" x2="3773.39" y2="2423.97" style="stroke:#000000;stroke-width:4.32"/>
	<text x="3773.39" y="2480.89" style="font-family:'Helvetica';font-size:60.02px;fill:#000000" text-anchor="middle">.08</text>
	<text x="3038.06" y="2558.95" style="font-family:'Helvetica';font-size:74.99px;fill:#FF0000" text-anchor="middle">p&lt;.001</text>
	<text x="3038.06" y="1519.25" style="font-family:'Helvetica';font-size:89.97px;fill:#000000" text-anchor="middle">Maintained network size: total</text>
	<text x="157.51" y="1367.73" style="font-family:'Helvetica';font-size:110.01px;fill:#000000" transform="rotate(-90 157.51,1367.73)" text-anchor="middle">Density</text>
	<text x="2052.27" y="2766.25" style="font-family:'Helvetica';font-size:110.01px;fill:#000000" text-anchor="middle">β(Compulsory schooling years)</text>
</svg>
