<?xml version="1.0" encoding="UTF-8" standalone="no"?>
<!-- This is a Stata 17.0 generated SVG file (http://www.stata.com) -->

<svg version="1.1" width="3.400in" height="2.000in" viewBox="0 0 2448 1440" xmlns="http://www.w3.org/2000/svg" xmlns:xlink="http://www.w3.org/1999/xlink">
	<desc>Stata Graph - cof1_h</desc>
	<rect x="0" y="0" width="2448" height="1440" style="fill:#FFFFFF;stroke:none"/>
	<rect x="0.00" y="0.00" width="2447.92" height="1440.00" style="fill:#FFFFFF"/>
	<rect x="1.50" y="1.50" width="2444.92" height="1437.00" style="fill:none;stroke:#FFFFFF;stroke-width:3.00"/>
	<rect x="265.20" y="176.92" width="2130.81" height="944.02" style="fill:none;stroke:#000000;stroke-width:3.00"/>
	<line x1="796.29" y1="1122.44" x2="796.29" y2="175.42" style="stroke:#000000;stroke-width:3.00"/>
	<line x1="1330.56" y1="1122.44" x2="1330.56" y2="1120.99" style="stroke:#000000;stroke-width:3.00"/>
	<line x1="1330.56" y1="1110.89" x2="1330.56" y2="1109.51" style="stroke:#000000;stroke-width:3.00"/>
	<line x1="1330.56" y1="1099.41" x2="1330.56" y2="1097.96" style="stroke:#000000;stroke-width:3.00"/>
	<line x1="1330.56" y1="1087.86" x2="1330.56" y2="1086.41" style="stroke:#000000;stroke-width:3.00"/>
	<line x1="1330.56" y1="1076.31" x2="1330.56" y2="1074.93" style="stroke:#000000;stroke-width:3.00"/>
	<line x1="1330.56" y1="1064.83" x2="1330.56" y2="1063.38" style="stroke:#000000;stroke-width:3.00"/>
	<line x1="1330.56" y1="1053.28" x2="1330.56" y2="1051.83" style="stroke:#000000;stroke-width:3.00"/>
	<line x1="1330.56" y1="1041.73" x2="1330.56" y2="1040.35" style="stroke:#000000;stroke-width:3.00"/>
	<line x1="1330.56" y1="1030.25" x2="1330.56" y2="1028.80" style="stroke:#000000;stroke-width:3.00"/>
	<line x1="1330.56" y1="1018.70" x2="1330.56" y2="1017.25" style="stroke:#000000;stroke-width:3.00"/>
	<line x1="1330.56" y1="1007.15" x2="1330.56" y2="1005.77" style="stroke:#000000;stroke-width:3.00"/>
	<line x1="1330.56" y1="995.68" x2="1330.56" y2="994.22" style="stroke:#000000;stroke-width:3.00"/>
	<line x1="1330.56" y1="984.12" x2="1330.56" y2="982.67" style="stroke:#000000;stroke-width:3.00"/>
	<line x1="1330.56" y1="972.57" x2="1330.56" y2="971.19" style="stroke:#000000;stroke-width:3.00"/>
	<line x1="1330.56" y1="961.10" x2="1330.56" y2="959.64" style="stroke:#000000;stroke-width:3.00"/>
	<line x1="1330.56" y1="949.54" x2="1330.56" y2="948.09" style="stroke:#000000;stroke-width:3.00"/>
	<line x1="1330.56" y1="938.07" x2="1330.56" y2="936.62" style="stroke:#000000;stroke-width:3.00"/>
	<line x1="1330.56" y1="926.52" x2="1330.56" y2="925.06" style="stroke:#000000;stroke-width:3.00"/>
	<line x1="1330.56" y1="914.97" x2="1330.56" y2="913.59" style="stroke:#000000;stroke-width:3.00"/>
	<line x1="1330.56" y1="903.49" x2="1330.56" y2="902.04" style="stroke:#000000;stroke-width:3.00"/>
	<line x1="1330.56" y1="891.94" x2="1330.56" y2="890.49" style="stroke:#000000;stroke-width:3.00"/>
	<line x1="1330.56" y1="880.39" x2="1330.56" y2="879.01" style="stroke:#000000;stroke-width:3.00"/>
	<line x1="1330.56" y1="868.91" x2="1330.56" y2="867.46" style="stroke:#000000;stroke-width:3.00"/>
	<line x1="1330.56" y1="857.36" x2="1330.56" y2="855.91" style="stroke:#000000;stroke-width:3.00"/>
	<line x1="1330.56" y1="845.81" x2="1330.56" y2="844.43" style="stroke:#000000;stroke-width:3.00"/>
	<line x1="1330.56" y1="834.33" x2="1330.56" y2="832.88" style="stroke:#000000;stroke-width:3.00"/>
	<line x1="1330.56" y1="822.78" x2="1330.56" y2="821.33" style="stroke:#000000;stroke-width:3.00"/>
	<line x1="1330.56" y1="811.23" x2="1330.56" y2="809.85" style="stroke:#000000;stroke-width:3.00"/>
	<line x1="1330.56" y1="799.75" x2="1330.56" y2="798.30" style="stroke:#000000;stroke-width:3.00"/>
	<line x1="1330.56" y1="788.20" x2="1330.56" y2="786.75" style="stroke:#000000;stroke-width:3.00"/>
	<line x1="1330.56" y1="776.65" x2="1330.56" y2="775.27" style="stroke:#000000;stroke-width:3.00"/>
	<line x1="1330.56" y1="765.17" x2="1330.56" y2="763.72" style="stroke:#000000;stroke-width:3.00"/>
	<line x1="1330.56" y1="753.62" x2="1330.56" y2="752.17" style="stroke:#000000;stroke-width:3.00"/>
	<line x1="1330.56" y1="742.15" x2="1330.56" y2="740.69" style="stroke:#000000;stroke-width:3.00"/>
	<line x1="1330.56" y1="730.60" x2="1330.56" y2="729.14" style="stroke:#000000;stroke-width:3.00"/>
	<line x1="1330.56" y1="719.04" x2="1330.56" y2="717.67" style="stroke:#000000;stroke-width:3.00"/>
	<line x1="1330.56" y1="707.57" x2="1330.56" y2="706.11" style="stroke:#000000;stroke-width:3.00"/>
	<line x1="1330.56" y1="696.02" x2="1330.56" y2="694.56" style="stroke:#000000;stroke-width:3.00"/>
	<line x1="1330.56" y1="684.46" x2="1330.56" y2="683.09" style="stroke:#000000;stroke-width:3.00"/>
	<line x1="1330.56" y1="672.99" x2="1330.56" y2="671.54" style="stroke:#000000;stroke-width:3.00"/>
	<line x1="1330.56" y1="661.44" x2="1330.56" y2="659.98" style="stroke:#000000;stroke-width:3.00"/>
	<line x1="1330.56" y1="649.89" x2="1330.56" y2="648.51" style="stroke:#000000;stroke-width:3.00"/>
	<line x1="1330.56" y1="638.41" x2="1330.56" y2="636.96" style="stroke:#000000;stroke-width:3.00"/>
	<line x1="1330.56" y1="626.86" x2="1330.56" y2="625.41" style="stroke:#000000;stroke-width:3.00"/>
	<line x1="1330.56" y1="615.31" x2="1330.56" y2="613.93" style="stroke:#000000;stroke-width:3.00"/>
	<line x1="1330.56" y1="603.83" x2="1330.56" y2="602.38" style="stroke:#000000;stroke-width:3.00"/>
	<line x1="1330.56" y1="592.28" x2="1330.56" y2="590.83" style="stroke:#000000;stroke-width:3.00"/>
	<line x1="1330.56" y1="580.73" x2="1330.56" y2="579.35" style="stroke:#000000;stroke-width:3.00"/>
	<line x1="1330.56" y1="569.25" x2="1330.56" y2="567.80" style="stroke:#000000;stroke-width:3.00"/>
	<line x1="1330.56" y1="557.70" x2="1330.56" y2="556.25" style="stroke:#000000;stroke-width:3.00"/>
	<line x1="1330.56" y1="546.23" x2="1330.56" y2="544.77" style="stroke:#000000;stroke-width:3.00"/>
	<line x1="1330.56" y1="534.67" x2="1330.56" y2="533.22" style="stroke:#000000;stroke-width:3.00"/>
	<line x1="1330.56" y1="523.12" x2="1330.56" y2="521.74" style="stroke:#000000;stroke-width:3.00"/>
	<line x1="1330.56" y1="511.65" x2="1330.56" y2="510.19" style="stroke:#000000;stroke-width:3.00"/>
	<line x1="1330.56" y1="500.09" x2="1330.56" y2="498.64" style="stroke:#000000;stroke-width:3.00"/>
	<line x1="1330.56" y1="488.54" x2="1330.56" y2="487.17" style="stroke:#000000;stroke-width:3.00"/>
	<line x1="1330.56" y1="477.07" x2="1330.56" y2="475.61" style="stroke:#000000;stroke-width:3.00"/>
	<line x1="1330.56" y1="465.52" x2="1330.56" y2="464.06" style="stroke:#000000;stroke-width:3.00"/>
	<line x1="1330.56" y1="453.96" x2="1330.56" y2="452.59" style="stroke:#000000;stroke-width:3.00"/>
	<line x1="1330.56" y1="442.49" x2="1330.56" y2="441.03" style="stroke:#000000;stroke-width:3.00"/>
	<line x1="1330.56" y1="430.94" x2="1330.56" y2="429.48" style="stroke:#000000;stroke-width:3.00"/>
	<line x1="1330.56" y1="419.38" x2="1330.56" y2="418.01" style="stroke:#000000;stroke-width:3.00"/>
	<line x1="1330.56" y1="407.91" x2="1330.56" y2="406.46" style="stroke:#000000;stroke-width:3.00"/>
	<line x1="1330.56" y1="396.36" x2="1330.56" y2="394.90" style="stroke:#000000;stroke-width:3.00"/>
	<line x1="1330.56" y1="384.88" x2="1330.56" y2="383.43" style="stroke:#000000;stroke-width:3.00"/>
	<line x1="1330.56" y1="373.33" x2="1330.56" y2="371.88" style="stroke:#000000;stroke-width:3.00"/>
	<line x1="1330.56" y1="361.78" x2="1330.56" y2="360.40" style="stroke:#000000;stroke-width:3.00"/>
	<line x1="1330.56" y1="350.30" x2="1330.56" y2="348.85" style="stroke:#000000;stroke-width:3.00"/>
	<line x1="1330.56" y1="338.75" x2="1330.56" y2="337.30" style="stroke:#000000;stroke-width:3.00"/>
	<line x1="1330.56" y1="327.20" x2="1330.56" y2="325.82" style="stroke:#000000;stroke-width:3.00"/>
	<line x1="1330.56" y1="315.72" x2="1330.56" y2="314.27" style="stroke:#000000;stroke-width:3.00"/>
	<line x1="1330.56" y1="304.17" x2="1330.56" y2="302.72" style="stroke:#000000;stroke-width:3.00"/>
	<line x1="1330.56" y1="292.62" x2="1330.56" y2="291.24" style="stroke:#000000;stroke-width:3.00"/>
	<line x1="1330.56" y1="281.15" x2="1330.56" y2="279.69" style="stroke:#000000;stroke-width:3.00"/>
	<line x1="1330.56" y1="269.59" x2="1330.56" y2="268.14" style="stroke:#000000;stroke-width:3.00"/>
	<line x1="1330.56" y1="258.04" x2="1330.56" y2="256.66" style="stroke:#000000;stroke-width:3.00"/>
	<line x1="1330.56" y1="246.57" x2="1330.56" y2="245.11" style="stroke:#000000;stroke-width:3.00"/>
	<line x1="1330.56" y1="235.01" x2="1330.56" y2="233.56" style="stroke:#000000;stroke-width:3.00"/>
	<line x1="1330.56" y1="223.46" x2="1330.56" y2="222.09" style="stroke:#000000;stroke-width:3.00"/>
	<line x1="1330.56" y1="211.99" x2="1330.56" y2="210.53" style="stroke:#000000;stroke-width:3.00"/>
	<line x1="1330.56" y1="200.44" x2="1330.56" y2="198.98" style="stroke:#000000;stroke-width:3.00"/>
	<line x1="1330.56" y1="188.96" x2="1330.56" y2="187.51" style="stroke:#000000;stroke-width:3.00"/>
	<line x1="1330.56" y1="177.41" x2="1330.56" y2="175.95" style="stroke:#000000;stroke-width:3.00"/>
	<line x1="1864.92" y1="1122.44" x2="1864.92" y2="1120.99" style="stroke:#000000;stroke-width:3.00"/>
	<line x1="1864.92" y1="1110.89" x2="1864.92" y2="1109.51" style="stroke:#000000;stroke-width:3.00"/>
	<line x1="1864.92" y1="1099.41" x2="1864.92" y2="1097.96" style="stroke:#000000;stroke-width:3.00"/>
	<line x1="1864.92" y1="1087.86" x2="1864.92" y2="1086.41" style="stroke:#000000;stroke-width:3.00"/>
	<line x1="1864.92" y1="1076.31" x2="1864.92" y2="1074.93" style="stroke:#000000;stroke-width:3.00"/>
	<line x1="1864.92" y1="1064.83" x2="1864.92" y2="1063.38" style="stroke:#000000;stroke-width:3.00"/>
	<line x1="1864.92" y1="1053.28" x2="1864.92" y2="1051.83" style="stroke:#000000;stroke-width:3.00"/>
	<line x1="1864.92" y1="1041.73" x2="1864.92" y2="1040.35" style="stroke:#000000;stroke-width:3.00"/>
	<line x1="1864.92" y1="1030.25" x2="1864.92" y2="1028.80" style="stroke:#000000;stroke-width:3.00"/>
	<line x1="1864.92" y1="1018.70" x2="1864.92" y2="1017.25" style="stroke:#000000;stroke-width:3.00"/>
	<line x1="1864.92" y1="1007.15" x2="1864.92" y2="1005.77" style="stroke:#000000;stroke-width:3.00"/>
	<line x1="1864.92" y1="995.68" x2="1864.92" y2="994.22" style="stroke:#000000;stroke-width:3.00"/>
	<line x1="1864.92" y1="984.12" x2="1864.92" y2="982.67" style="stroke:#000000;stroke-width:3.00"/>
	<line x1="1864.92" y1="972.57" x2="1864.92" y2="971.19" style="stroke:#000000;stroke-width:3.00"/>
	<line x1="1864.92" y1="961.10" x2="1864.92" y2="959.64" style="stroke:#000000;stroke-width:3.00"/>
	<line x1="1864.92" y1="949.54" x2="1864.92" y2="948.09" style="stroke:#000000;stroke-width:3.00"/>
	<line x1="1864.92" y1="938.07" x2="1864.92" y2="936.62" style="stroke:#000000;stroke-width:3.00"/>
	<line x1="1864.92" y1="926.52" x2="1864.92" y2="925.06" style="stroke:#000000;stroke-width:3.00"/>
	<line x1="1864.92" y1="914.97" x2="1864.92" y2="913.59" style="stroke:#000000;stroke-width:3.00"/>
	<line x1="1864.92" y1="903.49" x2="1864.92" y2="902.04" style="stroke:#000000;stroke-width:3.00"/>
	<line x1="1864.92" y1="891.94" x2="1864.92" y2="890.49" style="stroke:#000000;stroke-width:3.00"/>
	<line x1="1864.92" y1="880.39" x2="1864.92" y2="879.01" style="stroke:#000000;stroke-width:3.00"/>
	<line x1="1864.92" y1="868.91" x2="1864.92" y2="867.46" style="stroke:#000000;stroke-width:3.00"/>
	<line x1="1864.92" y1="857.36" x2="1864.92" y2="855.91" style="stroke:#000000;stroke-width:3.00"/>
	<line x1="1864.92" y1="845.81" x2="1864.92" y2="844.43" style="stroke:#000000;stroke-width:3.00"/>
	<line x1="1864.92" y1="834.33" x2="1864.92" y2="832.88" style="stroke:#000000;stroke-width:3.00"/>
	<line x1="1864.92" y1="822.78" x2="1864.92" y2="821.33" style="stroke:#000000;stroke-width:3.00"/>
	<line x1="1864.92" y1="811.23" x2="1864.92" y2="809.85" style="stroke:#000000;stroke-width:3.00"/>
	<line x1="1864.92" y1="799.75" x2="1864.92" y2="798.30" style="stroke:#000000;stroke-width:3.00"/>
	<line x1="1864.92" y1="788.20" x2="1864.92" y2="786.75" style="stroke:#000000;stroke-width:3.00"/>
	<line x1="1864.92" y1="776.65" x2="1864.92" y2="775.27" style="stroke:#000000;stroke-width:3.00"/>
	<line x1="1864.92" y1="765.17" x2="1864.92" y2="763.72" style="stroke:#000000;stroke-width:3.00"/>
	<line x1="1864.92" y1="753.62" x2="1864.92" y2="752.17" style="stroke:#000000;stroke-width:3.00"/>
	<line x1="1864.92" y1="742.15" x2="1864.92" y2="740.69" style="stroke:#000000;stroke-width:3.00"/>
	<line x1="1864.92" y1="730.60" x2="1864.92" y2="729.14" style="stroke:#000000;stroke-width:3.00"/>
	<line x1="1864.92" y1="719.04" x2="1864.92" y2="717.67" style="stroke:#000000;stroke-width:3.00"/>
	<line x1="1864.92" y1="707.57" x2="1864.92" y2="706.11" style="stroke:#000000;stroke-width:3.00"/>
	<line x1="1864.92" y1="696.02" x2="1864.92" y2="694.56" style="stroke:#000000;stroke-width:3.00"/>
	<line x1="1864.92" y1="684.46" x2="1864.92" y2="683.09" style="stroke:#000000;stroke-width:3.00"/>
	<line x1="1864.92" y1="672.99" x2="1864.92" y2="671.54" style="stroke:#000000;stroke-width:3.00"/>
	<line x1="1864.92" y1="661.44" x2="1864.92" y2="659.98" style="stroke:#000000;stroke-width:3.00"/>
	<line x1="1864.92" y1="649.89" x2="1864.92" y2="648.51" style="stroke:#000000;stroke-width:3.00"/>
	<line x1="1864.92" y1="638.41" x2="1864.92" y2="636.96" style="stroke:#000000;stroke-width:3.00"/>
	<line x1="1864.92" y1="626.86" x2="1864.92" y2="625.41" style="stroke:#000000;stroke-width:3.00"/>
	<line x1="1864.92" y1="615.31" x2="1864.92" y2="613.93" style="stroke:#000000;stroke-width:3.00"/>
	<line x1="1864.92" y1="603.83" x2="1864.92" y2="602.38" style="stroke:#000000;stroke-width:3.00"/>
	<line x1="1864.92" y1="592.28" x2="1864.92" y2="590.83" style="stroke:#000000;stroke-width:3.00"/>
	<line x1="1864.92" y1="580.73" x2="1864.92" y2="579.35" style="stroke:#000000;stroke-width:3.00"/>
	<line x1="1864.92" y1="569.25" x2="1864.92" y2="567.80" style="stroke:#000000;stroke-width:3.00"/>
	<line x1="1864.92" y1="557.70" x2="1864.92" y2="556.25" style="stroke:#000000;stroke-width:3.00"/>
	<line x1="1864.92" y1="546.23" x2="1864.92" y2="544.77" style="stroke:#000000;stroke-width:3.00"/>
	<line x1="1864.92" y1="534.67" x2="1864.92" y2="533.22" style="stroke:#000000;stroke-width:3.00"/>
	<line x1="1864.92" y1="523.12" x2="1864.92" y2="521.74" style="stroke:#000000;stroke-width:3.00"/>
	<line x1="1864.92" y1="511.65" x2="1864.92" y2="510.19" style="stroke:#000000;stroke-width:3.00"/>
	<line x1="1864.92" y1="500.09" x2="1864.92" y2="498.64" style="stroke:#000000;stroke-width:3.00"/>
	<line x1="1864.92" y1="488.54" x2="1864.92" y2="487.17" style="stroke:#000000;stroke-width:3.00"/>
	<line x1="1864.92" y1="477.07" x2="1864.92" y2="475.61" style="stroke:#000000;stroke-width:3.00"/>
	<line x1="1864.92" y1="465.52" x2="1864.92" y2="464.06" style="stroke:#000000;stroke-width:3.00"/>
	<line x1="1864.92" y1="453.96" x2="1864.92" y2="452.59" style="stroke:#000000;stroke-width:3.00"/>
	<line x1="1864.92" y1="442.49" x2="1864.92" y2="441.03" style="stroke:#000000;stroke-width:3.00"/>
	<line x1="1864.92" y1="430.94" x2="1864.92" y2="429.48" style="stroke:#000000;stroke-width:3.00"/>
	<line x1="1864.92" y1="419.38" x2="1864.92" y2="418.01" style="stroke:#000000;stroke-width:3.00"/>
	<line x1="1864.92" y1="407.91" x2="1864.92" y2="406.46" style="stroke:#000000;stroke-width:3.00"/>
	<line x1="1864.92" y1="396.36" x2="1864.92" y2="394.90" style="stroke:#000000;stroke-width:3.00"/>
	<line x1="1864.92" y1="384.88" x2="1864.92" y2="383.43" style="stroke:#000000;stroke-width:3.00"/>
	<line x1="1864.92" y1="373.33" x2="1864.92" y2="371.88" style="stroke:#000000;stroke-width:3.00"/>
	<line x1="1864.92" y1="361.78" x2="1864.92" y2="360.40" style="stroke:#000000;stroke-width:3.00"/>
	<line x1="1864.92" y1="350.30" x2="1864.92" y2="348.85" style="stroke:#000000;stroke-width:3.00"/>
	<line x1="1864.92" y1="338.75" x2="1864.92" y2="337.30" style="stroke:#000000;stroke-width:3.00"/>
	<line x1="1864.92" y1="327.20" x2="1864.92" y2="325.82" style="stroke:#000000;stroke-width:3.00"/>
	<line x1="1864.92" y1="315.72" x2="1864.92" y2="314.27" style="stroke:#000000;stroke-width:3.00"/>
	<line x1="1864.92" y1="304.17" x2="1864.92" y2="302.72" style="stroke:#000000;stroke-width:3.00"/>
	<line x1="1864.92" y1="292.62" x2="1864.92" y2="291.24" style="stroke:#000000;stroke-width:3.00"/>
	<line x1="1864.92" y1="281.15" x2="1864.92" y2="279.69" style="stroke:#000000;stroke-width:3.00"/>
	<line x1="1864.92" y1="269.59" x2="1864.92" y2="268.14" style="stroke:#000000;stroke-width:3.00"/>
	<line x1="1864.92" y1="258.04" x2="1864.92" y2="256.66" style="stroke:#000000;stroke-width:3.00"/>
	<line x1="1864.92" y1="246.57" x2="1864.92" y2="245.11" style="stroke:#000000;stroke-width:3.00"/>
	<line x1="1864.92" y1="235.01" x2="1864.92" y2="233.56" style="stroke:#000000;stroke-width:3.00"/>
	<line x1="1864.92" y1="223.46" x2="1864.92" y2="222.09" style="stroke:#000000;stroke-width:3.00"/>
	<line x1="1864.92" y1="211.99" x2="1864.92" y2="210.53" style="stroke:#000000;stroke-width:3.00"/>
	<line x1="1864.92" y1="200.44" x2="1864.92" y2="198.98" style="stroke:#000000;stroke-width:3.00"/>
	<line x1="1864.92" y1="188.96" x2="1864.92" y2="187.51" style="stroke:#000000;stroke-width:3.00"/>
	<line x1="1864.92" y1="177.41" x2="1864.92" y2="175.95" style="stroke:#000000;stroke-width:3.00"/>
	<line x1="263.70" y1="765.86" x2="2397.51" y2="765.86" style="stroke:#000000;stroke-width:3.00"/>
	<rect x="342.40" y="454.63" width="39.36" height="39.36" style="fill:#000000"/>
	<rect x="344.56" y="456.79" width="35.04" height="35.04" style="fill:none;stroke:#000000;stroke-width:4.32"/>
	<rect x="876.75" y="910.89" width="39.36" height="39.36" style="fill:#000000"/>
	<rect x="878.91" y="913.05" width="35.04" height="35.04" style="fill:none;stroke:#000000;stroke-width:4.32"/>
	<rect x="1411.10" y="745.50" width="39.36" height="39.36" style="fill:#000000"/>
	<rect x="1413.26" y="747.66" width="35.04" height="35.04" style="fill:none;stroke:#000000;stroke-width:4.32"/>
	<rect x="1945.38" y="596.24" width="39.36" height="39.36" style="fill:#000000"/>
	<rect x="1947.54" y="598.40" width="35.04" height="35.04" style="fill:none;stroke:#000000;stroke-width:4.32"/>
	<line x1="362.15" y1="412.96" x2="362.15" y2="535.59" style="stroke:#000000;stroke-width:4.32"/>
	<line x1="351.14" y1="535.59" x2="373.17" y2="535.59" stroke-linecap="round" style="stroke:#000000;stroke-width:4.32"/>
	<line x1="351.14" y1="412.96" x2="373.17" y2="412.96" stroke-linecap="round" style="stroke:#000000;stroke-width:4.32"/>
	<line x1="896.43" y1="867.30" x2="896.43" y2="993.69" style="stroke:#000000;stroke-width:4.32"/>
	<line x1="885.41" y1="993.69" x2="907.44" y2="993.69" stroke-linecap="round" style="stroke:#000000;stroke-width:4.32"/>
	<line x1="885.41" y1="867.30" x2="907.44" y2="867.30" stroke-linecap="round" style="stroke:#000000;stroke-width:4.32"/>
	<line x1="1430.78" y1="754.69" x2="1430.78" y2="775.58" style="stroke:#000000;stroke-width:4.32"/>
	<line x1="1419.76" y1="775.58" x2="1441.80" y2="775.58" stroke-linecap="round" style="stroke:#000000;stroke-width:4.32"/>
	<line x1="1419.76" y1="754.69" x2="1441.80" y2="754.69" stroke-linecap="round" style="stroke:#000000;stroke-width:4.32"/>
	<line x1="1965.13" y1="556.17" x2="1965.13" y2="675.67" style="stroke:#000000;stroke-width:4.32"/>
	<line x1="1954.12" y1="675.67" x2="1976.15" y2="675.67" stroke-linecap="round" style="stroke:#000000;stroke-width:4.32"/>
	<line x1="1954.12" y1="556.17" x2="1976.15" y2="556.17" stroke-linecap="round" style="stroke:#000000;stroke-width:4.32"/>
	<circle cx="495.64" cy="542.40" r="19.68" style="fill:#000000"/>
	<circle cx="495.64" cy="542.40" r="17.52" style="fill:none;stroke:#000000;stroke-width:4.32"/>
	<circle cx="1030.00" cy="621.89" r="19.68" style="fill:#000000"/>
	<circle cx="1030.00" cy="621.89" r="17.52" style="fill:none;stroke:#000000;stroke-width:4.32"/>
	<circle cx="1564.35" cy="754.39" r="19.68" style="fill:#000000"/>
	<circle cx="1564.35" cy="754.39" r="17.52" style="fill:none;stroke:#000000;stroke-width:4.32"/>
	<circle cx="2098.62" cy="935.16" r="19.68" style="fill:#000000"/>
	<circle cx="2098.62" cy="935.16" r="17.52" style="fill:none;stroke:#000000;stroke-width:4.32"/>
	<line x1="495.72" y1="473.40" x2="495.72" y2="611.33" style="stroke:#000000;stroke-width:4.32"/>
	<line x1="484.70" y1="611.33" x2="506.74" y2="611.33" stroke-linecap="round" style="stroke:#000000;stroke-width:4.32"/>
	<line x1="484.70" y1="473.40" x2="506.74" y2="473.40" stroke-linecap="round" style="stroke:#000000;stroke-width:4.32"/>
	<line x1="1030.07" y1="558.08" x2="1030.07" y2="685.61" style="stroke:#000000;stroke-width:4.32"/>
	<line x1="1019.06" y1="685.61" x2="1041.09" y2="685.61" stroke-linecap="round" style="stroke:#000000;stroke-width:4.32"/>
	<line x1="1019.06" y1="558.08" x2="1041.09" y2="558.08" stroke-linecap="round" style="stroke:#000000;stroke-width:4.32"/>
	<line x1="1564.35" y1="741.69" x2="1564.35" y2="766.93" style="stroke:#000000;stroke-width:4.32"/>
	<line x1="1553.33" y1="766.93" x2="1575.36" y2="766.93" stroke-linecap="round" style="stroke:#000000;stroke-width:4.32"/>
	<line x1="1553.33" y1="741.69" x2="1575.36" y2="741.69" stroke-linecap="round" style="stroke:#000000;stroke-width:4.32"/>
	<line x1="2098.70" y1="879.47" x2="2098.70" y2="990.78" style="stroke:#000000;stroke-width:4.32"/>
	<line x1="2087.69" y1="990.78" x2="2109.72" y2="990.78" stroke-linecap="round" style="stroke:#000000;stroke-width:4.32"/>
	<line x1="2087.69" y1="879.47" x2="2109.72" y2="879.47" stroke-linecap="round" style="stroke:#000000;stroke-width:4.32"/>
	<circle cx="562.43" cy="398.96" r="12.39" style="fill:none;stroke:#E69F00;stroke-width:4.32"/>
	<circle cx="1096.78" cy="533.83" r="12.39" style="fill:none;stroke:#E69F00;stroke-width:4.32"/>
	<circle cx="1631.13" cy="744.90" r="12.39" style="fill:none;stroke:#E69F00;stroke-width:4.32"/>
	<circle cx="2165.41" cy="1013.42" r="12.39" style="fill:none;stroke:#E69F00;stroke-width:4.32"/>
	<line x1="562.50" y1="278.77" x2="562.50" y2="519.07" style="stroke:#E69F00;stroke-width:4.32"/>
	<line x1="551.49" y1="519.07" x2="573.52" y2="519.07" stroke-linecap="round" style="stroke:#E69F00;stroke-width:4.32"/>
	<line x1="551.49" y1="278.77" x2="573.52" y2="278.77" stroke-linecap="round" style="stroke:#E69F00;stroke-width:4.32"/>
	<line x1="1096.86" y1="431.93" x2="1096.86" y2="635.66" style="stroke:#E69F00;stroke-width:4.32"/>
	<line x1="1085.84" y1="635.66" x2="1107.87" y2="635.66" stroke-linecap="round" style="stroke:#E69F00;stroke-width:4.32"/>
	<line x1="1085.84" y1="431.93" x2="1107.87" y2="431.93" stroke-linecap="round" style="stroke:#E69F00;stroke-width:4.32"/>
	<line x1="1631.13" y1="725.39" x2="1631.13" y2="764.33" style="stroke:#E69F00;stroke-width:4.32"/>
	<line x1="1620.12" y1="764.33" x2="1642.15" y2="764.33" stroke-linecap="round" style="stroke:#E69F00;stroke-width:4.32"/>
	<line x1="1620.12" y1="725.39" x2="1642.15" y2="725.39" stroke-linecap="round" style="stroke:#E69F00;stroke-width:4.32"/>
	<line x1="2165.49" y1="936.00" x2="2165.49" y2="1090.77" style="stroke:#E69F00;stroke-width:4.32"/>
	<line x1="2154.47" y1="1090.77" x2="2176.50" y2="1090.77" stroke-linecap="round" style="stroke:#E69F00;stroke-width:4.32"/>
	<line x1="2154.47" y1="936.00" x2="2176.50" y2="936.00" stroke-linecap="round" style="stroke:#E69F00;stroke-width:4.32"/>
	<circle cx="629.29" cy="563.97" r="12.39" style="fill:none;stroke:#009E73;stroke-width:4.32"/>
	<circle cx="1163.57" cy="633.67" r="12.39" style="fill:none;stroke:#009E73;stroke-width:4.32"/>
	<circle cx="1697.92" cy="754.16" r="12.39" style="fill:none;stroke:#009E73;stroke-width:4.32"/>
	<circle cx="2232.27" cy="927.67" r="12.39" style="fill:none;stroke:#009E73;stroke-width:4.32"/>
	<line x1="629.29" y1="497.88" x2="629.29" y2="630.00" style="stroke:#009E73;stroke-width:4.32"/>
	<line x1="618.27" y1="630.00" x2="640.30" y2="630.00" stroke-linecap="round" style="stroke:#009E73;stroke-width:4.32"/>
	<line x1="618.27" y1="497.88" x2="640.30" y2="497.88" stroke-linecap="round" style="stroke:#009E73;stroke-width:4.32"/>
	<line x1="1163.64" y1="567.65" x2="1163.64" y2="699.61" style="stroke:#009E73;stroke-width:4.32"/>
	<line x1="1152.63" y1="699.61" x2="1174.66" y2="699.61" stroke-linecap="round" style="stroke:#009E73;stroke-width:4.32"/>
	<line x1="1152.63" y1="567.65" x2="1174.66" y2="567.65" stroke-linecap="round" style="stroke:#009E73;stroke-width:4.32"/>
	<line x1="1697.92" y1="741.54" x2="1697.92" y2="766.78" style="stroke:#009E73;stroke-width:4.32"/>
	<line x1="1686.90" y1="766.78" x2="1708.93" y2="766.78" stroke-linecap="round" style="stroke:#009E73;stroke-width:4.32"/>
	<line x1="1686.90" y1="741.54" x2="1708.93" y2="741.54" stroke-linecap="round" style="stroke:#009E73;stroke-width:4.32"/>
	<line x1="2232.27" y1="872.35" x2="2232.27" y2="982.90" style="stroke:#009E73;stroke-width:4.32"/>
	<line x1="2221.25" y1="982.90" x2="2243.29" y2="982.90" stroke-linecap="round" style="stroke:#009E73;stroke-width:4.32"/>
	<line x1="2221.25" y1="872.35" x2="2243.29" y2="872.35" stroke-linecap="round" style="stroke:#009E73;stroke-width:4.32"/>
	<circle cx="696.07" cy="745.74" r="12.39" style="fill:none;stroke:#332288;stroke-width:4.32"/>
	<circle cx="1230.35" cy="726.77" r="12.39" style="fill:none;stroke:#332288;stroke-width:4.32"/>
	<circle cx="1764.70" cy="763.80" r="12.39" style="fill:none;stroke:#332288;stroke-width:4.32"/>
	<circle cx="2299.05" cy="821.25" r="12.39" style="fill:none;stroke:#332288;stroke-width:4.32"/>
	<line x1="696.07" y1="638.03" x2="696.07" y2="853.38" style="stroke:#332288;stroke-width:4.32"/>
	<line x1="685.06" y1="853.38" x2="707.09" y2="853.38" stroke-linecap="round" style="stroke:#332288;stroke-width:4.32"/>
	<line x1="685.06" y1="638.03" x2="707.09" y2="638.03" stroke-linecap="round" style="stroke:#332288;stroke-width:4.32"/>
	<line x1="1230.43" y1="605.21" x2="1230.43" y2="848.26" style="stroke:#332288;stroke-width:4.32"/>
	<line x1="1219.41" y1="848.26" x2="1241.44" y2="848.26" stroke-linecap="round" style="stroke:#332288;stroke-width:4.32"/>
	<line x1="1219.41" y1="605.21" x2="1241.44" y2="605.21" stroke-linecap="round" style="stroke:#332288;stroke-width:4.32"/>
	<line x1="1764.70" y1="742.45" x2="1764.70" y2="784.99" style="stroke:#332288;stroke-width:4.32"/>
	<line x1="1753.69" y1="784.99" x2="1775.72" y2="784.99" stroke-linecap="round" style="stroke:#332288;stroke-width:4.32"/>
	<line x1="1753.69" y1="742.45" x2="1775.72" y2="742.45" stroke-linecap="round" style="stroke:#332288;stroke-width:4.32"/>
	<line x1="2299.05" y1="713.23" x2="2299.05" y2="929.20" style="stroke:#332288;stroke-width:4.32"/>
	<line x1="2288.04" y1="929.20" x2="2310.07" y2="929.20" stroke-linecap="round" style="stroke:#332288;stroke-width:4.32"/>
	<line x1="2288.04" y1="713.23" x2="2310.07" y2="713.23" stroke-linecap="round" style="stroke:#332288;stroke-width:4.32"/>
	<line x1="263.70" y1="1122.44" x2="263.70" y2="175.42" style="stroke:#000000;stroke-width:3.00"/>
	<line x1="263.70" y1="1045.25" x2="243.65" y2="1045.25" style="stroke:#000000;stroke-width:3.00"/>
	<text x="212.59" y="1045.25" style="font-family:'Helvetica';font-size:70.00px;fill:#000000" transform="rotate(-90 212.59,1045.25)" text-anchor="middle">-.2</text>
	<line x1="263.70" y1="765.86" x2="243.65" y2="765.86" style="stroke:#000000;stroke-width:3.00"/>
	<text x="212.59" y="765.86" style="font-family:'Helvetica';font-size:70.00px;fill:#000000" transform="rotate(-90 212.59,765.86)" text-anchor="middle">0</text>
	<line x1="263.70" y1="486.48" x2="243.65" y2="486.48" style="stroke:#000000;stroke-width:3.00"/>
	<text x="212.59" y="486.48" style="font-family:'Helvetica';font-size:70.00px;fill:#000000" transform="rotate(-90 212.59,486.48)" text-anchor="middle">.2</text>
	<line x1="263.70" y1="207.09" x2="243.65" y2="207.09" style="stroke:#000000;stroke-width:3.00"/>
	<text x="212.59" y="207.09" style="font-family:'Helvetica';font-size:70.00px;fill:#000000" transform="rotate(-90 212.59,207.09)" text-anchor="middle">.4</text>
	<text x="116.33" y="648.89" style="font-family:'Helvetica';font-size:80.02px;fill:#000000" transform="rotate(-90 116.33,648.89)" text-anchor="middle">Marginal effects of health &amp; wealth</text>
	<line x1="263.70" y1="175.42" x2="2397.51" y2="175.42" style="stroke:#000000;stroke-width:3.00"/>
	<line x1="529.07" y1="175.42" x2="529.07" y2="155.38" style="stroke:#000000;stroke-width:3.00"/>
	<text x="529.07" y="121.39" style="font-family:'Helvetica';font-size:80.02px;fill:#000000" text-anchor="middle">Voting</text>
	<line x1="1063.43" y1="175.42" x2="1063.43" y2="155.38" style="stroke:#000000;stroke-width:3.00"/>
	<text x="1063.43" y="121.39" style="font-family:'Helvetica';font-size:80.02px;fill:#000000" text-anchor="middle">At polls</text>
	<line x1="1597.78" y1="175.42" x2="1597.78" y2="155.38" style="stroke:#000000;stroke-width:3.00"/>
	<text x="1597.78" y="121.39" style="font-family:'Helvetica';font-size:80.02px;fill:#000000" text-anchor="middle">Early</text>
	<line x1="2132.05" y1="175.42" x2="2132.05" y2="155.38" style="stroke:#000000;stroke-width:3.00"/>
	<text x="2132.05" y="121.39" style="font-family:'Helvetica';font-size:80.02px;fill:#000000" text-anchor="middle">Absentee</text>
	<line x1="263.70" y1="1122.44" x2="2397.51" y2="1122.44" style="stroke:#000000;stroke-width:3.00"/>
	<rect x="280.91" y="1154.72" width="2099.31" height="217.57" style="fill:#FFFFFF"/>
	<rect x="282.41" y="1156.22" width="2096.31" height="214.57" style="fill:none;stroke:#000000;stroke-width:3.00"/>
	<rect x="299.48" y="1196.63" width="39.36" height="39.36" style="fill:#000000"/>
	<rect x="301.64" y="1198.79" width="35.04" height="35.04" style="fill:none;stroke:#000000;stroke-width:4.32"/>
	<circle cx="1131.89" cy="1216.31" r="19.68" style="fill:#000000"/>
	<circle cx="1131.89" cy="1216.31" r="17.52" style="fill:none;stroke:#000000;stroke-width:4.32"/>
	<line x1="1797.06" y1="1216.31" x2="1865.53" y2="1216.31" style="stroke:#000000;stroke-width:4.32"/>
	<line x1="1797.06" y1="1227.32" x2="1797.06" y2="1205.29" style="stroke:#000000;stroke-width:4.32"/>
	<line x1="1865.53" y1="1227.32" x2="1865.53" y2="1205.29" style="stroke:#000000;stroke-width:4.32"/>
	<circle cx="319.16" cy="1310.71" r="12.39" style="fill:none;stroke:#E69F00;stroke-width:4.32"/>
	<circle cx="1131.89" cy="1310.71" r="12.39" style="fill:none;stroke:#009E73;stroke-width:4.32"/>
	<circle cx="1831.26" cy="1310.71" r="12.39" style="fill:none;stroke:#332288;stroke-width:4.32"/>
	<text x="349.53" y="1244.33" style="font-family:'Helvetica';font-size:80.02px;fill:#000000">Wealth</text>
	<text x="1162.26" y="1244.33" style="font-family:'Helvetica';font-size:80.02px;fill:#000000">Health</text>
	<text x="1879.22" y="1244.33" style="font-family:'Helvetica';font-size:80.02px;fill:#000000">95% CI</text>
	<text x="349.53" y="1338.74" style="font-family:'Helvetica';font-size:80.02px;fill:#000000">Health at low wealth</text>
	<text x="1162.26" y="1338.74" style="font-family:'Helvetica';font-size:80.02px;fill:#000000">at middle wealth</text>
	<text x="1879.22" y="1338.74" style="font-family:'Helvetica';font-size:80.02px;fill:#000000">at high wealth</text>
</svg>
